<svg viewBox="0 0 100 100" fill="none" xmlns="http://www.w3.org/2000/svg">
    <g transform="translate(50, 50) scale(3.5) translate(-14, -11)">
        <path d="M6.79096 8.24539C6.30523 6.91129 5.86926 6.04734 5.39746 4.70923L10.6848 4.61882C16.0378 4.61882 21.3929 4.61882 26.7439 4.61882C26.9509 4.61882 27.158 4.61078 27.3491 4.70722C27.7154 4.89207 27.8468 5.23965 27.6855 5.68569C27.0763 7.37139 24.5641 14.2508 23.927 16.0109C23.7319 16.5534 23.5926 16.6598 23.0173 16.6618H22.9854C22.01 16.6759 22.1354 16.5333 22.1294 17.5519C22.1215 18.7534 22.1215 19.9549 22.1294 21.1564C22.1294 21.508 22.0339 21.7873 21.7014 21.938C21.357 22.0947 21.0942 21.938 20.8554 21.6948C19.2986 20.1136 17.7359 18.5344 16.1832 16.9451C15.9841 16.7402 15.777 16.6558 15.4944 16.6578C13.854 16.6679 12.2157 16.6639 10.5753 16.6618C9.94425 16.6618 9.8268 16.5795 9.6118 15.9928C8.66621 13.409 7.7266 10.8272 6.78499 8.24338L6.79096 8.24539Z" fill="url(#paint0_linear_530_3115)"/>
        <path d="M20.4466 20.4575C20.1162 20.4575 19.734 20.3289 19.3418 19.9331L18.3703 18.9526C17.1898 17.7612 16.0073 16.5717 14.8328 15.3742C14.803 15.3441 14.789 15.3361 14.789 15.3361C14.789 15.3361 14.7711 15.3321 14.7293 15.3321C13.3597 15.3401 11.9682 15.3401 10.6225 15.3381H9.97746C9.04183 15.3381 8.6397 15.0548 8.3192 14.1828C7.90314 13.0516 6.95158 10.5221 6.03187 8.07691C4.94095 5.17967 3.90976 2.43513 3.6012 1.57721H0.78036C0.350366 1.57721 0 1.2256 0 0.789608C0 0.353616 0.348375 0 0.78036 0H3.70074C4.3736 0 4.80957 0.305395 5.03054 0.936278C5.2734 1.62543 6.40015 4.61911 7.48907 7.51634C8.41077 9.96554 9.36233 12.4971 9.78038 13.6343C9.80029 13.6885 9.81621 13.7287 9.83015 13.7609C9.86797 13.7609 9.91575 13.7629 9.97945 13.7629H10.6244C11.9662 13.7649 13.3557 13.7669 14.7193 13.7589C15.2071 13.7589 15.6032 13.9216 15.9416 14.2672C17.1142 15.4627 18.2947 16.6521 19.4732 17.8395L20.3411 18.7155C20.3351 17.6547 20.3351 16.5396 20.3411 15.4004C20.3411 15.2919 20.3411 15.1974 20.3411 15.1171C20.3371 14.7293 20.3332 14.3656 20.6318 14.0623C20.9284 13.7609 21.2967 13.7649 21.653 13.7669C21.7346 13.7669 21.8282 13.7669 21.9377 13.7669H21.9795C22.0233 13.7669 22.0571 13.7669 22.085 13.7649C22.0969 13.7388 22.1089 13.7026 22.1268 13.6584C22.4154 12.8648 23.1042 10.9862 23.8149 9.04935C24.6032 6.89551 25.4194 4.67135 25.7399 3.78931C25.7001 3.78931 25.6563 3.78931 25.6225 3.78931H10.079C9.64899 3.78931 9.29863 3.4357 9.29863 3.00172C9.29863 2.56773 9.647 2.21412 10.079 2.21412H25.6105C25.8435 2.21412 26.164 2.21412 26.5004 2.38289C27.223 2.74454 27.5017 3.49597 27.2091 4.29764C26.8985 5.15556 26.0704 7.41187 25.2701 9.59585C24.5614 11.5307 23.8727 13.4093 23.584 14.2009C23.2834 15.0267 22.8474 15.3361 21.9795 15.3401H21.9536C21.9337 15.3401 21.9158 15.3401 21.8979 15.3401C21.8979 15.3622 21.8979 15.3863 21.8979 15.4104C21.8919 16.5978 21.8919 17.7591 21.8979 18.8582C21.9038 19.7965 21.3524 20.1842 21.0219 20.3309C20.8587 20.4032 20.6636 20.4615 20.4446 20.4615L20.4466 20.4575Z" fill="black"/>
        <path d="M13.6288 8.76473C13.6168 9.27507 13.1908 9.67489 12.6792 9.65681C12.1855 9.63873 11.7973 9.22283 11.8033 8.72254C11.8093 8.20819 12.2253 7.80435 12.7369 7.81439C13.2446 7.82444 13.6407 8.24838 13.6288 8.76473Z" fill="black"/>
        <path d="M15.9457 9.65663C15.444 9.65261 15.018 9.22465 15.022 8.7304C15.028 8.22609 15.446 7.81421 15.9537 7.81421C16.4613 7.81421 16.8734 8.23011 16.8714 8.73843C16.8694 9.24274 16.4493 9.65864 15.9457 9.65462V9.65663Z" fill="black"/>
        <path d="M20.1019 8.73447C20.1019 9.2448 19.6938 9.65668 19.1882 9.65668C18.6825 9.65668 18.2744 9.24681 18.2744 8.73447C18.2744 8.22213 18.6785 7.81226 19.1882 7.81226C19.6938 7.81226 20.1019 8.22414 20.1019 8.73447Z" fill="black"/>
    </g>
    <defs>
        <linearGradient id="paint0_linear_530_3115" x1="5.39746" y1="4.61865" x2="33.2909" y2="21.8722" gradientUnits="userSpaceOnUse">
            <stop stop-color="#B1ECFF"/>
            <stop offset="1" stop-color="#DFBAFF"/>
        </linearGradient>
    </defs>
</svg>