<?xml version="1.0" encoding="UTF-8"?>
<svg version="1.1" xmlns="http://www.w3.org/2000/svg" viewBox="65 65 270 270">
<path d="M0 0 C24.09 0 48.18 0 73 0 C73 23.76 73 47.52 73 72 C48.91 72 24.82 72 0 72 C0 48.24 0 24.48 0 0 Z " fill="#14447D" transform="translate(80,80)"/>
<path d="M0 0 C24.09 0 48.18 0 73 0 C73 23.76 73 47.52 73 72 C48.91 72 24.82 72 0 72 C0 48.24 0 24.48 0 0 Z " fill="#14447D" transform="translate(80,164)"/>
<path d="M0 0 C24.09 0 48.18 0 73 0 C73 23.76 73 47.52 73 72 C48.91 72 24.82 72 0 72 C0 48.24 0 24.48 0 0 Z " fill="#14447D" transform="translate(247,80)"/>
<path d="M0 0 C0.69104324 -0.00175232 1.38208649 -0.00350464 2.09407043 -0.00531006 C4.3889107 -0.00972801 6.68367451 -0.0067908 8.97851562 -0.00341797 C10.56652847 -0.00409102 12.15454122 -0.00506106 13.74255371 -0.00631714 C17.07496112 -0.00779403 20.40734178 -0.00563983 23.73974609 -0.00097656 C28.02075073 0.00472073 32.30169268 0.00144168 36.58269501 -0.00454903 C39.86310299 -0.00815487 43.143496 -0.00701595 46.42390442 -0.00442123 C48.00283312 -0.00375203 49.58176317 -0.00458017 51.16069031 -0.00690079 C53.36367415 -0.0094277 55.56655511 -0.00558622 57.76953125 0 C59.65363708 0.00119339 59.65363708 0.00119339 61.57580566 0.00241089 C64.38476562 0.12939453 64.38476562 0.12939453 65.38476562 1.12939453 C65.48436714 3.33264427 65.5127632 5.53912944 65.51416016 7.74462891 C65.51678864 8.78119377 65.51678864 8.78119377 65.51947021 9.83869934 C65.52388817 12.1335396 65.52095096 14.42830342 65.51757812 16.72314453 C65.51825118 18.31115738 65.51922122 19.89917012 65.52047729 21.48718262 C65.52195419 24.81959003 65.51979998 28.15197069 65.51513672 31.484375 C65.50943943 35.76537963 65.51271848 40.04632158 65.51870918 44.32732391 C65.52231502 47.60773189 65.52117611 50.8881249 65.51858139 54.16853333 C65.51791218 55.74746203 65.51874032 57.32639207 65.52106094 58.90531921 C65.52358785 61.10830306 65.51974637 63.31118402 65.51416016 65.51416016 C65.51336456 66.77023071 65.51256897 68.02630127 65.51174927 69.32043457 C65.38476562 72.12939453 65.38476562 72.12939453 64.38476562 73.12939453 C62.18151589 73.22899605 59.97503072 73.2573921 57.76953125 73.25878906 C57.07848801 73.26054138 56.38744476 73.2622937 55.67546082 73.26409912 C53.38062055 73.26851707 51.08585674 73.26557986 48.79101562 73.26220703 C47.20300278 73.26288009 45.61499003 73.26385013 44.02697754 73.2651062 C40.69457013 73.2665831 37.36218947 73.26442889 34.02978516 73.25976562 C29.74878052 73.25406834 25.46783857 73.25734739 21.18683624 73.26333809 C17.90642826 73.26694393 14.62603525 73.26580501 11.34562683 73.2632103 C9.76669813 73.26254109 8.18776808 73.26336923 6.60884094 73.26568985 C4.4058571 73.26821676 2.20297614 73.26437528 0 73.25878906 C-1.88410583 73.25759567 -1.88410583 73.25759567 -3.80627441 73.25637817 C-6.61523438 73.12939453 -6.61523438 73.12939453 -7.61523438 72.12939453 C-7.71483589 69.92614479 -7.74323195 67.71965963 -7.74462891 65.51416016 C-7.74638123 64.82311691 -7.74813354 64.13207367 -7.74993896 63.42008972 C-7.75435692 61.12524946 -7.75141971 58.83048564 -7.74804688 56.53564453 C-7.74871993 54.94763168 -7.74968997 53.35961894 -7.75094604 51.77160645 C-7.75242294 48.43919903 -7.75026873 45.10681837 -7.74560547 41.77441406 C-7.73990818 37.49340943 -7.74318723 33.21246748 -7.74917793 28.93146515 C-7.75278377 25.65105717 -7.75164486 22.37066416 -7.74905014 19.09025574 C-7.74838093 17.51132703 -7.74920907 15.93239699 -7.75152969 14.35346985 C-7.7540566 12.15048601 -7.75021512 9.94760505 -7.74462891 7.74462891 C-7.74383331 6.48855835 -7.74303772 5.23248779 -7.74221802 3.93835449 C-7.50491268 -1.31099251 -4.62890319 0.00293194 0 0 Z " fill="#B9BFC7" transform="translate(254.615234375,246.87060546875)"/>
<path d="M0 0 C23.76 0 47.52 0 72 0 C72 24.09 72 48.18 72 73 C48.24 73 24.48 73 0 73 C0 48.91 0 24.82 0 0 Z " fill="#14447D" transform="translate(164,80)"/>
<path d="M0 0 C0 24.09 0 48.18 0 73 C-23.76 73 -47.52 73 -72 73 C-72 55.51 -72 38.02 -72 20 C-68.308125 17.999375 -64.61625 15.99875 -60.8125 13.9375 C-59.6778833 13.32253662 -58.5432666 12.70757324 -57.37426758 12.07397461 C-56.43220459 11.56358643 -55.4901416 11.05319824 -54.51953125 10.52734375 C-53.58214111 10.01937256 -52.64475098 9.51140137 -51.67895508 8.98803711 C-29.11694538 -3.20404232 -33.53162971 0 0 0 Z " fill="#B8BEC6" transform="translate(236,247)"/>
<path d="M0 0 C23.76 0 47.52 0 72 0 C72 17.16 72 34.32 72 52 C65.07 55.96 65.07 55.96 58 60 C56.37835938 61.1240625 54.75671875 62.248125 53.0859375 63.40625 C34.08154794 75.88674464 26.32390171 72 0 72 C0 48.24 0 24.48 0 0 Z " fill="#11427B" transform="translate(164,164)"/>
<path d="M0 0 C17.92863777 -0.04010881 17.92863777 -0.04010881 25.54492188 -0.04882812 C30.75090549 -0.0548162 35.95687159 -0.06191555 41.1628418 -0.07543945 C45.35790258 -0.08626959 49.55294459 -0.0922771 53.74801826 -0.09487724 C55.35206968 -0.09673126 56.95612003 -0.10035144 58.5601635 -0.10573006 C60.79916515 -0.11294219 63.0380883 -0.11399087 65.27709961 -0.11352539 C66.55395126 -0.115746 67.83080292 -0.11796661 69.14634705 -0.12025452 C72 0 72 0 73 1 C73.07271741 3.35313555 73.08370868 5.70833668 73.0625 8.0625 C73.05347656 9.35285156 73.04445313 10.64320313 73.03515625 11.97265625 C73.02355469 12.97167969 73.01195312 13.97070312 73 15 C72.30664551 15.3717334 71.61329102 15.7434668 70.89892578 16.12646484 C54.43331446 24.94496743 54.43331446 24.94496743 38.0625 33.9375 C37.38719238 34.31358398 36.71188477 34.68966797 36.01611328 35.07714844 C31.94956565 37.34594197 27.8883141 39.6241011 23.82798767 41.90400696 C21.34015366 43.29966588 18.85038034 44.69184259 16.36032104 46.08352661 C15.12546663 46.7748417 13.89150882 47.46776094 12.65847778 48.162323 C10.9307229 49.13548764 9.19980087 50.10302286 7.46875 51.0703125 C6.46263672 51.63508301 5.45652344 52.19985352 4.41992188 52.78173828 C2 54 2 54 0 54 C0 36.18 0 18.36 0 0 Z " fill="#18477F" transform="translate(80,247)"/>
<path d="M0 0 C0 17.49 0 34.98 0 53 C-24.09 53 -48.18 53 -73 53 C-73 48.38 -73 43.76 -73 39 C-69.42750518 36.07001602 -67.11376612 34.75865137 -63 33 C-60.83007711 31.81033458 -58.6717006 30.59944013 -56.5234375 29.37109375 C-54.14177663 28.05773895 -51.75905133 26.74649296 -49.375 25.4375 C-48.10200896 24.73672961 -46.82906038 24.03588209 -45.55615234 23.33496094 C-36.28601071 18.23509132 -26.99181128 13.18018945 -17.67724609 8.16186523 C-16.76539551 7.67016846 -15.85354492 7.17847168 -14.9140625 6.671875 C-14.0674707 6.21619141 -13.22087891 5.76050781 -12.34863281 5.29101562 C-10.21177447 4.11640992 -8.11744256 2.88937371 -6.0234375 1.640625 C-3 0 -3 0 0 0 Z " fill="#B9BFC7" transform="translate(320,183)"/>
<path d="M0 0 C0.99 0.495 0.99 0.495 2 1 C2.02527124 7.24795675 2.04283344 13.49590041 2.05493164 19.74389648 C2.05997298 21.87118014 2.06680591 23.99846031 2.07543945 26.12573242 C2.08751379 29.17627826 2.09323014 32.22677845 2.09765625 35.27734375 C2.10281754 36.23462875 2.10797882 37.19191376 2.11329651 38.1782074 C2.11337204 39.05904495 2.11344757 39.93988251 2.11352539 40.84741211 C2.115746 41.62684677 2.11796661 42.40628143 2.12025452 43.20933533 C2 45 2 45 1 46 C-1.20324974 46.09960152 -3.4097349 46.12799757 -5.61523438 46.12939453 C-6.30627762 46.13114685 -6.99732086 46.13289917 -7.70930481 46.13470459 C-10.00414507 46.13912254 -12.29890889 46.13618533 -14.59375 46.1328125 C-16.18176285 46.13348556 -17.76977559 46.13445559 -19.35778809 46.13571167 C-22.6901955 46.13718857 -26.02257616 46.13503436 -29.35498047 46.13037109 C-33.6359851 46.1246738 -37.91692705 46.12795285 -42.19792938 46.13394356 C-45.47833736 46.1375494 -48.75873037 46.13641048 -52.03913879 46.13381577 C-53.6180675 46.13314656 -55.19699754 46.1339747 -56.77592468 46.13629532 C-58.97890853 46.13882223 -61.18178949 46.13498075 -63.38476562 46.12939453 C-65.26887146 46.12820114 -65.26887146 46.12820114 -67.19104004 46.12698364 C-70 46 -70 46 -71 45 C-71.29125977 42.61621094 -71.29125977 42.61621094 -71 40 C-69.50366211 38.45410156 -69.50366211 38.45410156 -67.33984375 37.140625 C-66.10210205 36.38362305 -66.10210205 36.38362305 -64.83935547 35.61132812 C-60.06051605 32.89934703 -55.2458588 30.26710164 -50.38317871 27.70831299 C-47.26706933 26.06815096 -44.15953354 24.41186356 -41.05078125 22.7578125 C-40.13212784 22.26980667 -40.13212784 22.26980667 -39.19491577 21.77194214 C-34.18438475 19.10735934 -29.20615406 16.38919115 -24.25 13.625 C-23.55334229 13.23755615 -22.85668457 12.8501123 -22.13891602 12.45092773 C-18.54960885 10.44770228 -14.97938529 8.41464472 -11.421875 6.35546875 C-10.3076416 5.71520752 -10.3076416 5.71520752 -9.17089844 5.06201172 C-7.75858636 4.24912225 -6.35013638 3.42947292 -4.94628906 2.60205078 C-3.33101077 1.67383098 -1.66885166 0.82803992 0 0 Z " fill="#BBC1C8" transform="translate(151,274)"/>
<path d="M0 0 C24.09 0 48.18 0 73 0 C73 1.98 73 3.96 73 6 C64.72799196 10.60663366 56.45126075 15.20441528 48.15625 19.76953125 C46.9453896 20.43619014 45.73453354 21.10285691 44.52368164 21.76953125 C42.66462114 22.79308686 40.80542433 23.81639035 38.94577026 24.83886719 C32.31347586 28.48629896 25.6975938 32.15694988 19.12890625 35.91796875 C18.07018311 36.52342529 17.01145996 37.12888184 15.9206543 37.75268555 C13.93313654 38.89293922 11.94876072 40.03869212 9.96801758 41.19067383 C8.64966919 41.94707153 8.64966919 41.94707153 7.3046875 42.71875 C6.1597583 43.38293945 6.1597583 43.38293945 4.99169922 44.06054688 C3 45 3 45 0 45 C0 30.15 0 15.3 0 0 Z " fill="#18477E" transform="translate(247,164)"/>
<path d="M0 0 C4.29 0 8.58 0 13 0 C13 0.66 13 1.32 13 2 C11.21118264 3.00508801 9.41885304 4.00392736 7.625 5 C6.62726563 5.556875 5.62953125 6.11375 4.6015625 6.6875 C2 8 2 8 0 8 C0 5.36 0 2.72 0 0 Z " fill="#14447D" transform="translate(164,247)"/>
<path d="M0 0 C0 2.31 0 4.62 0 7 C-4.29 7 -8.58 7 -13 7 C-9.31013097 3.31013097 -5.44167695 0 0 0 Z " fill="#C6CACC" transform="translate(236,229)"/>
</svg>
