<?xml version="1.0" encoding="UTF-8"?>
<svg version="1.1" xmlns="http://www.w3.org/2000/svg" width="512" height="425">
<path d="M0 0 C19.82374802 17.93306018 35.49494738 41.891071 39.94580078 68.59619141 C20.80580078 68.59619141 1.66580078 68.59619141 -18.05419922 68.59619141 C-20.69419922 63.97619141 -23.33419922 59.35619141 -26.05419922 54.59619141 C-28.85140984 51.25228837 -28.85140984 51.25228837 -31.80419922 48.04931641 C-33.05419922 46.59619141 -33.05419922 46.59619141 -33.05419922 44.59619141 C-33.71419922 44.59619141 -34.37419922 44.59619141 -35.05419922 44.59619141 C-35.05419922 43.93619141 -35.05419922 43.27619141 -35.05419922 42.59619141 C-35.58271484 42.35513672 -36.11123047 42.11408203 -36.65576172 41.86572266 C-39.11981979 40.56145739 -41.37366719 39.0471835 -43.671875 37.47338867 C-60.71636122 25.93438043 -79.77641827 22.25878281 -99.92675781 26.11547852 C-111.21021409 28.533362 -121.01086829 33.49427281 -130.05419922 40.59619141 C-130.68455078 41.08603516 -131.31490234 41.57587891 -131.96435547 42.08056641 C-134.95527616 44.45902346 -134.95527616 44.45902346 -137.05419922 47.59619141 C-137.71419922 47.59619141 -138.37419922 47.59619141 -139.05419922 47.59619141 C-139.31330078 48.14533203 -139.57240234 48.69447266 -139.83935547 49.26025391 C-141.73997662 52.91482447 -144.05186423 56.29671443 -146.30029297 59.74462891 C-148.05490695 62.59734206 -149.5564247 65.60064236 -151.05419922 68.59619141 C-163.59419922 68.92619141 -176.13419922 69.25619141 -189.05419922 69.59619141 C-190.04419922 74.87619141 -191.03419922 80.15619141 -192.05419922 85.59619141 C-180.17419922 85.59619141 -168.29419922 85.59619141 -156.05419922 85.59619141 C-156.05419922 92.19619141 -156.05419922 98.79619141 -156.05419922 105.59619141 C-167.93419922 105.59619141 -179.81419922 105.59619141 -192.05419922 105.59619141 C-190.56919922 113.51619141 -190.56919922 113.51619141 -189.05419922 121.59619141 C-176.51419922 121.92619141 -163.97419922 122.25619141 -151.05419922 122.59619141 C-148.74419922 126.88619141 -146.43419922 131.17619141 -144.05419922 135.59619141 C-138.42488034 143.18353425 -132.7320426 149.11916306 -125.05419922 154.59619141 C-124.05259766 155.31935547 -124.05259766 155.31935547 -123.03076172 156.05712891 C-114.99194426 161.47102638 -105.73495533 163.83288119 -96.39013672 165.98291016 C-94.05419922 166.59619141 -94.05419922 166.59619141 -93.05419922 167.59619141 C-92.96564761 170.26245171 -92.93895249 172.90266255 -92.95654297 175.56884766 C-92.95795792 176.36649033 -92.95937286 177.164133 -92.96083069 177.98594666 C-92.96644605 180.54356576 -92.9790011 183.10109858 -92.99169922 185.65869141 C-92.99671224 187.38850785 -93.00127549 189.11832567 -93.00537109 190.84814453 C-93.01557131 195.09755379 -93.03514354 199.34677557 -93.05419922 203.59619141 C-87.44419922 203.59619141 -81.83419922 203.59619141 -76.05419922 203.59619141 C-76.05419922 191.38619141 -76.05419922 179.17619141 -76.05419922 166.59619141 C-60.05419922 162.59619141 -60.05419922 162.59619141 -57.05419922 162.59619141 C-57.05419922 174.80619141 -57.05419922 187.01619141 -57.05419922 199.59619141 C-48.41841189 196.93902607 -41.41835602 194.61582753 -33.74169922 190.34619141 C-32.89414062 189.88728516 -32.04658203 189.42837891 -31.17333984 188.95556641 C-29.1276972 187.84606531 -27.08840282 186.72648393 -25.05419922 185.59619141 C-29.63130871 180.08509298 -29.63130871 180.08509298 -34.92919922 175.28369141 C-36.73388672 173.85791016 -36.73388672 173.85791016 -38.05419922 172.59619141 C-38.05419922 171.93619141 -38.05419922 171.27619141 -38.05419922 170.59619141 C-38.71419922 170.59619141 -39.37419922 170.59619141 -40.05419922 170.59619141 C-41.40806858 168.94616313 -42.74098064 167.27875271 -44.05419922 165.59619141 C-44.71419922 165.26619141 -45.37419922 164.93619141 -46.05419922 164.59619141 C-46.05419922 163.93619141 -46.05419922 163.27619141 -46.05419922 162.59619141 C-46.71419922 162.59619141 -47.37419922 162.59619141 -48.05419922 162.59619141 C-48.05419922 161.93619141 -48.05419922 161.27619141 -48.05419922 160.59619141 C-48.71419922 160.59619141 -49.37419922 160.59619141 -50.05419922 160.59619141 C-48.80559434 156.85037677 -47.40055094 156.16544548 -44.17919922 153.97119141 C-43.29490234 153.36017578 -42.41060547 152.74916016 -41.49951172 152.11962891 C-39.05419922 150.59619141 -39.05419922 150.59619141 -36.05419922 149.59619141 C-36.05419922 148.93619141 -36.05419922 148.27619141 -36.05419922 147.59619141 C-32.19091295 149.1809272 -29.76542999 151.65576028 -26.85107422 154.60400391 C-26.36842102 155.089487 -25.88576782 155.57497009 -25.38848877 156.07516479 C-23.8556136 157.61919007 -22.32985918 159.17003965 -20.80419922 160.72119141 C-19.76299561 161.77243149 -18.72133381 162.82321798 -17.67919922 163.87353516 C-15.13220458 166.44252144 -12.59154745 169.01767302 -10.05419922 171.59619141 C-5.77579034 169.69164605 -3.47051292 166.74974085 -0.67919922 163.09619141 C-0.19531738 162.47123779 0.28856445 161.84628418 0.78710938 161.20239258 C5.17690767 155.45118249 9.64033366 149.51259278 11.94580078 142.59619141 C-8.34919922 142.10119141 -8.34919922 142.10119141 -29.05419922 141.59619141 C-26.74419922 137.63619141 -24.43419922 133.67619141 -22.05419922 129.59619141 C-20.73419922 127.28619141 -19.41419922 124.97619141 -18.05419922 122.59619141 C1.08580078 122.59619141 20.22580078 122.59619141 39.94580078 122.59619141 C32.33891891 155.55934619 13.95608599 184.43154651 -14.97509766 202.81689453 C-43.87717589 220.37223094 -78.91478709 228.42597886 -112.41357422 220.63134766 C-113.61498047 220.28974609 -114.81638672 219.94814453 -116.05419922 219.59619141 C-117.1109082 219.29817627 -117.1109082 219.29817627 -118.18896484 218.99414062 C-139.77052407 212.75791085 -157.85107945 202.137372 -174.05419922 186.59619141 C-174.76962891 185.92072266 -175.48505859 185.24525391 -176.22216797 184.54931641 C-179.81102696 181.08223506 -179.81102696 181.08223506 -181.05419922 179.59619141 C-181.05419922 178.93619141 -181.05419922 178.27619141 -181.05419922 177.59619141 C-181.71419922 177.59619141 -182.37419922 177.59619141 -183.05419922 177.59619141 C-184.8633802 175.27836864 -186.5358825 172.96616682 -188.17919922 170.53369141 C-188.67129883 169.80561279 -189.16339844 169.07753418 -189.67041016 168.32739258 C-209.1273839 139.10079002 -216.73066771 104.90580674 -210.08935547 70.18603516 C-204.38427311 43.5302134 -190.15544782 18.98669545 -170.05419922 0.59619141 C-169.39419922 0.59619141 -168.73419922 0.59619141 -168.05419922 0.59619141 C-168.05419922 -0.06380859 -168.05419922 -0.72380859 -168.05419922 -1.40380859 C-120.42737205 -42.69359431 -46.85204641 -41.12524735 0 0 Z M-155.05419922 13.59619141 C-155.78896484 14.18658203 -156.52373047 14.77697266 -157.28076172 15.38525391 C-167.15789413 23.58711297 -179.08379219 36.85969811 -182.05419922 49.59619141 C-170.61867708 51.19397377 -170.61867708 51.19397377 -160.32763672 47.49853516 C-158.35855486 44.61784133 -156.71156935 41.66525091 -155.05419922 38.59619141 C-140.81176054 20.07824481 -119.07745325 8.66184536 -96.05419922 5.59619141 C-92.25690451 5.32141954 -88.48552355 5.26150741 -84.67919922 5.28369141 C-83.67187744 5.28860596 -82.66455566 5.29352051 -81.62670898 5.29858398 C-74.08725459 5.41706199 -67.24876013 6.24229813 -60.05419922 8.59619141 C-58.93271484 8.93650391 -57.81123047 9.27681641 -56.65576172 9.62744141 C-42.44915368 14.26889392 -25.6236666 22.74199033 -17.05419922 35.59619141 C-16.39419922 35.59619141 -15.73419922 35.59619141 -15.05419922 35.59619141 C-13.95259399 37.76894274 -12.92168228 39.91892638 -11.99560547 42.17431641 C-10.29930651 45.46119597 -9.02595909 47.342044 -6.05419922 49.59619141 C0.16684943 50.89316896 6.67035741 50.16041708 12.94580078 49.59619141 C8.75526403 40.14193166 3.43082577 32.56870563 -3.05419922 24.59619141 C-3.74513672 23.71189453 -4.43607422 22.82759766 -5.14794922 21.91650391 C-21.15559257 2.43179048 -48.22980029 -9.28892015 -72.69238281 -12.17675781 C-102.89027426 -15.07980092 -132.03634134 -6.2792968 -155.05419922 13.59619141 Z M-182.05419922 141.59619141 C-172.41340673 166.31946815 -151.07793132 184.9279331 -127.17333984 195.421875 C-120.33261211 198.47972294 -120.33261211 198.47972294 -113.05419922 199.59619141 C-113.05419922 193.98619141 -113.05419922 188.37619141 -113.05419922 182.59619141 C-114.12669922 182.05994141 -115.19919922 181.52369141 -116.30419922 180.97119141 C-117.03767578 180.59994141 -117.77115234 180.22869141 -118.52685547 179.84619141 C-120.27057757 178.98376317 -122.0297518 178.15212764 -123.80029297 177.34619141 C-135.59188971 171.83405057 -149.58132161 162.93594386 -155.87060547 151.20947266 C-157.95451489 147.34360909 -159.70474267 144.52915794 -163.05419922 141.59619141 C-169.25915261 139.9992889 -175.77232471 140.84850136 -182.05419922 141.59619141 Z " fill="#ffffff" transform="translate(342.05419921875,103.40380859375)"/>
<path d="M0 0 C2.65425116 0.01608785 5.30697581 0.00003268 7.96118164 -0.01904297 C23.88341092 -0.03932127 39.56150079 1.85175407 54.97094727 5.95361328 C55.9100293 6.20191895 56.84911133 6.45022461 57.81665039 6.70605469 C89.59690876 15.55552107 117.88937121 32.79414007 141.72094727 55.39111328 C143.15374023 56.74462891 143.15374023 56.74462891 144.61547852 58.12548828 C152.089872 65.31996905 158.5316033 73.07749344 164.72094727 81.39111328 C165.33325195 82.19677734 165.94555664 83.00244141 166.57641602 83.83251953 C184.29551404 108.03318786 200.72094727 141.70720973 200.72094727 172.39111328 C182.24094727 172.39111328 163.76094727 172.39111328 144.72094727 172.39111328 C142.74094727 165.46111328 140.76094727 158.53111328 138.72094727 151.39111328 C132.5175933 134.68977569 124.68118243 119.70867776 112.72094727 106.39111328 C112.01325195 105.59519775 112.01325195 105.59519775 111.29125977 104.78320312 C106.10413018 98.32352373 106.10413018 98.32352373 99.72094727 93.39111328 C101.30568306 89.52782701 103.78051614 87.10234405 106.72875977 84.18798828 C107.21424286 83.70533508 107.69972595 83.22268188 108.19992065 82.72540283 C109.74394593 81.19252766 111.29479551 79.66677324 112.84594727 78.14111328 C113.89718735 77.09990967 114.94797384 76.05824787 115.99829102 75.01611328 C118.5672773 72.46911864 121.14242888 69.92846151 123.72094727 67.39111328 C122.46067929 63.61030935 120.78548192 62.61815903 117.65844727 60.20361328 C116.7393457 59.48818359 115.82024414 58.77275391 114.87329102 58.03564453 C114.16301758 57.49294922 113.45274414 56.95025391 112.72094727 56.39111328 C106.7259373 61.35306183 101.25667689 66.73877568 95.78344727 72.26611328 C94.90881836 73.14525391 94.03418945 74.02439453 93.13305664 74.93017578 C90.99337678 77.08154788 88.85608129 79.2352312 86.72094727 81.39111328 C83.15438652 79.63901753 79.76851104 77.66175734 76.34594727 75.64111328 C69.37182399 71.61212797 62.23699405 68.30617673 54.72094727 65.39111328 C53.5852832 64.94896484 52.44961914 64.50681641 51.27954102 64.05126953 C26.10639596 54.96019958 -2.23249072 53.01743126 -28.27905273 59.39111328 C-30.10436523 59.79136719 -30.10436523 59.79136719 -31.96655273 60.19970703 C-46.72320417 63.71691738 -60.51069599 69.95879494 -73.49389648 77.72705078 C-75.72661208 79.06104355 -77.94800477 80.24725099 -80.27905273 81.39111328 C-82.45182988 79.27205865 -84.61732181 77.1463845 -86.77905273 75.01611328 C-87.3990918 74.41283203 -88.01913086 73.80955078 -88.65795898 73.18798828 C-89.24448242 72.60791016 -89.83100586 72.02783203 -90.43530273 71.43017578 C-90.97993164 70.89602051 -91.52456055 70.36186523 -92.08569336 69.81152344 C-93.27905273 68.39111328 -93.27905273 68.39111328 -93.27905273 66.39111328 C-91.89648437 65.28125 -91.89648437 65.28125 -89.93920898 64.07080078 C-89.21499756 63.62188477 -88.49078613 63.17296875 -87.74462891 62.71044922 C-86.5551062 61.99550293 -86.5551062 61.99550293 -85.34155273 61.26611328 C-84.52468994 60.77401367 -83.70782715 60.28191406 -82.86621094 59.77490234 C-56.95405382 44.41695942 -29.22165122 36.20215504 0.95092773 36.20581055 C2.95373633 36.203632 4.95650542 36.18513845 6.95922852 36.16650391 C34.78546767 36.12538139 59.05491581 44.36337022 83.72094727 56.39111328 C87.35094727 52.76111328 90.98094727 49.13111328 94.72094727 45.39111328 C90.93785821 41.60802422 86.95641514 39.84455723 82.15844727 37.57861328 C81.2196875 37.13501465 80.28092773 36.69141602 79.3137207 36.234375 C37.51306025 16.8858749 -12.87622825 14.15083528 -56.40625 29.42651367 C-78.99646956 37.76782472 -99.02944772 49.67617563 -117.27905273 65.39111328 C-115.69987489 69.25095166 -113.23578124 71.63487441 -110.27124023 74.52392578 C-109.78575714 75.00183563 -109.30027405 75.47974548 -108.80007935 75.97213745 C-107.25614518 77.49172297 -105.70593692 79.00465027 -104.15405273 80.51611328 C-102.10410457 82.51302922 -100.06075032 84.51635671 -98.02124023 86.52392578 C-97.11229004 87.40967285 -96.20333984 88.29541992 -95.2668457 89.20800781 C-93.27905273 91.39111328 -93.27905273 91.39111328 -93.27905273 93.39111328 C-94.71264648 94.76611328 -94.71264648 94.76611328 -96.71655273 96.39111328 C-119.67460579 116.08097249 -131.12413714 143.77145091 -138.27905273 172.39111328 C-156.75905273 172.39111328 -175.23905273 172.39111328 -194.27905273 172.39111328 C-193.12191534 157.3483271 -193.12191534 157.3483271 -191.02905273 150.01611328 C-190.80652832 149.21012695 -190.58400391 148.40414062 -190.35473633 147.57373047 C-189.6818942 145.17350014 -188.98648356 142.78135659 -188.27905273 140.39111328 C-187.97692871 139.3648584 -187.97692871 139.3648584 -187.66870117 138.31787109 C-172.71409906 88.46087539 -135.45035025 47.05072171 -90.27905273 22.39111328 C-76.45853455 15.07752009 -61.9677336 9.81630187 -46.90405273 5.70361328 C-46.22294434 5.51323486 -45.54183594 5.32285645 -44.84008789 5.12670898 C-30.05816832 1.27238313 -15.23509149 -0.1092322 0 0 Z M-132.27905273 80.39111328 C-151.17978376 98.99913387 -163.71838365 125.188883 -171.27905273 150.39111328 C-171.27905273 151.38111328 -171.27905273 152.37111328 -171.27905273 153.39111328 C-165.33905273 153.39111328 -159.39905273 153.39111328 -153.27905273 153.39111328 C-152.66030273 151.34923828 -152.04155273 149.30736328 -151.40405273 147.20361328 C-144.74261235 126.72037704 -133.80206322 109.00641627 -120.27905273 92.39111328 C-123.9573729 87.86495336 -127.68991636 83.99686329 -132.27905273 80.39111328 Z M137.72094727 80.39111328 C134.09094727 84.02111328 130.46094727 87.65111328 126.72094727 91.39111328 C128.94233584 95.09342757 131.06873129 98.17159093 133.72094727 101.51611328 C145.43602295 117.07906749 154.36973792 134.66188056 159.72094727 153.39111328 C165.66094727 153.39111328 171.60094727 153.39111328 177.72094727 153.39111328 C172.75107269 129.78420906 158.57597962 94.29446818 137.72094727 80.39111328 Z " fill="#ffffff" transform="translate(254.279052734375,-0.39111328125)"/>
<path d="M0 0 C18.48 0 36.96 0 56 0 C55.312114 8.94251805 54.50240579 16.39245985 52.0625 24.8125 C51.75965088 25.8742041 51.45680176 26.9359082 51.14477539 28.02978516 C45.5559612 46.8929026 37.53874 64.81459763 26.8125 81.3125 C26.11302246 82.38927002 26.11302246 82.38927002 25.39941406 83.48779297 C19.26131739 92.79771924 12.59716875 101.87974586 4.47265625 109.5625 C2.75527442 111.18380756 2.75527442 111.18380756 0.5625 114 C-2.65984119 117.77249701 -6.18632173 120.83758063 -10 124 C-10.51852539 124.43618652 -11.03705078 124.87237305 -11.57128906 125.32177734 C-40.60589052 149.66033326 -76.88406369 167.77845734 -115 171 C-115 164.73 -115 158.46 -115 152 C-111.65875 151.195625 -111.65875 151.195625 -108.25 150.375 C-74.3785134 141.93272705 -44.32557588 128.93377694 -18.86767578 104.49023438 C-16.56134223 102.29677588 -15.06792111 101.02264037 -12 100 C-11.31802572 98.67443095 -10.65452692 97.33933444 -10 96 C-8.51662015 94.3203317 -6.99016369 92.67833936 -5.4375 91.0625 C0.06416425 85.16450827 4.63220173 78.77960762 9 72 C9.55469971 71.14994385 9.55469971 71.14994385 10.12060547 70.28271484 C20.45132705 54.31379468 27.31293673 37.08194475 33 19 C27.06 19 21.12 19 15 19 C14.6596875 20.8253125 14.6596875 20.8253125 14.3125 22.6875 C10.47634491 39.58234744 1.5751619 55.44210013 -9 69 C-9.97988091 70.35364992 -10.95909383 71.70778376 -11.9375 73.0625 C-15.65436671 77.98158775 -19.79380932 82.49827631 -24 87 C-24.72703125 87.79277344 -25.4540625 88.58554687 -26.203125 89.40234375 C-37.93463179 101.71244527 -51.87872275 111.33855286 -67 119 C-67.63147949 119.32194336 -68.26295898 119.64388672 -68.91357422 119.97558594 C-77.96463333 124.53259947 -87.21350638 128.31798096 -97 131 C-97.81500977 131.22993652 -98.63001953 131.45987305 -99.46972656 131.69677734 C-127.07568316 139.17275789 -158.52587476 138.79462542 -186 131 C-186.83208984 130.77006348 -187.66417969 130.54012695 -188.52148438 130.30322266 C-199.64523227 127.14702672 -209.89518401 122.58565379 -220 117 C-220.95302002 116.47599609 -220.95302002 116.47599609 -221.92529297 115.94140625 C-250.58220045 99.97948686 -272.71265973 75.88443408 -288 47 C-288.45246094 46.16339844 -288.90492188 45.32679688 -289.37109375 44.46484375 C-290.94551371 41.46309498 -292 39.4365529 -292 36 C-285.07 36 -278.14 36 -271 36 C-269.700625 38.3925 -268.40125 40.785 -267.0625 43.25 C-263.41225463 49.86276334 -259.35628599 55.84014715 -254.65234375 61.7421875 C-253 64 -253 64 -253 66 C-252.34 66 -251.68 66 -251 66 C-249.58984375 67.43359375 -249.58984375 67.43359375 -247.9375 69.4375 C-225.4928583 95.53167693 -192.98568148 112.33933566 -158.61791992 115.82128906 C-153.00057616 116.2047541 -147.37805789 116.18459595 -141.75 116.1875 C-140.51636719 116.19974609 -139.28273438 116.21199219 -138.01171875 116.22460938 C-129.81787473 116.23753342 -122.05150105 115.50180964 -114 114 C-113.24009766 113.86456787 -112.48019531 113.72913574 -111.69726562 113.58959961 C-82.42049242 108.0948906 -53.51947833 91.80441587 -34.375 68.8125 C-33.59125 67.884375 -32.8075 66.95625 -32 66 C-31.34 66 -30.68 66 -30 66 C-29.76539063 65.48050781 -29.53078125 64.96101563 -29.2890625 64.42578125 C-27.91934922 61.84822989 -26.32903961 59.4807525 -24.67480469 57.07861328 C-12.1934364 38.91920705 -5.6946538 21.35495173 0 0 Z " fill="#ffffff" transform="translate(399,226)"/>
<path d="M0 0 C18.48 0 36.96 0 56 0 C60 16 60 16 60 19 C47.79 19 35.58 19 23 19 C32.49439541 48.64103933 45.71902269 77.02574936 68.78125 98.671875 C70 100 70 100 70 102 C70.55171875 102.22816406 71.1034375 102.45632813 71.671875 102.69140625 C74.66883059 104.37593666 76.78602394 106.53890878 79.25 108.9375 C86.23175589 115.52894416 93.946496 120.80925671 102 126 C102.97324219 126.63679688 103.94648438 127.27359375 104.94921875 127.9296875 C125.09786562 140.40402807 148.18801607 146.50822609 171 152 C171 158.27 171 164.54 171 171 C134.40099911 167.0139702 100.81507303 151.60562772 72 129 C71.02289063 128.25105469 70.04578125 127.50210938 69.0390625 126.73046875 C63.78257392 122.64454275 63.78257392 122.64454275 62 121 C62 120.34 62 119.68 62 119 C61.40396973 118.73227783 60.80793945 118.46455566 60.19384766 118.1887207 C57.97118362 116.98438605 56.61854212 115.81460278 54.8984375 113.98046875 C54.33084717 113.37710693 53.76325684 112.77374512 53.1784668 112.15209961 C52.58332275 111.50378174 51.98817871 110.85546387 51.375 110.1875 C50.75471924 109.51533447 50.13443848 108.84316895 49.49536133 108.15063477 C25.72667437 82.08521898 10.38243694 51.08902077 2 17 C1.79842285 16.21625 1.5968457 15.4325 1.38916016 14.625 C1.20530762 13.8721875 1.02145508 13.119375 0.83203125 12.34375 C0.67065674 11.69599609 0.50928223 11.04824219 0.34301758 10.38085938 C-0.15069076 6.95406672 0 3.46217501 0 0 Z " fill="#ffffff" transform="translate(60,226)"/>
<path d="M0 0 C4.07376031 1.61010527 6.76507069 4.53822271 9.75 7.625 C10.25660156 8.140625 10.76320313 8.65625 11.28515625 9.1875 C12.52803902 10.45383339 13.76465276 11.7263144 15 13 C10.88380164 17.91935902 6.59589638 22.52647956 2 27 C-8.24714829 18.42585551 -8.24714829 18.42585551 -12 14 C-12 13.34 -12 12.68 -12 12 C-11.34 12 -10.68 12 -10 12 C-9.67 11.01 -9.34 10.02 -9 9 C-8.34 9 -7.68 9 -7 9 C-7 8.34 -7 7.68 -7 7 C-6.34 7 -5.68 7 -5 7 C-4.67 6.01 -4.34 5.02 -4 4 C-3.34 4 -2.68 4 -2 4 C-2 3.34 -2 2.68 -2 2 C-1.34 2 -0.68 2 0 2 C0 1.34 0 0.68 0 0 Z " fill="#00A9E0" transform="translate(67,186)"/>
<path d="M0 0 C0.99 0 1.98 0 3 0 C3 0.66 3 1.32 3 2 C3.66 2 4.32 2 5 2 C6.4375 3.49609375 6.4375 3.49609375 8 5.4375 C10.14525044 8.15188238 10.14525044 8.15188238 13 10 C13 10.66 13 11.32 13 12 C13.66 12 14.32 12 15 12 C13.38989473 16.07376031 10.46177729 18.76507069 7.375 21.75 C6.859375 22.25660156 6.34375 22.76320312 5.8125 23.28515625 C4.54616661 24.52803902 3.2736856 25.76465276 2 27 C-8.24714829 18.42585551 -8.24714829 18.42585551 -12 14 C-12 13.34 -12 12.68 -12 12 C-10.390625 10.44921875 -10.390625 10.44921875 -8.25 8.6875 C-5.71773649 6.55271701 -3.75101142 4.6837172 -1.6875 2.0625 C-1.130625 1.381875 -0.57375 0.70125 0 0 Z " fill="#00A9E0" transform="translate(442,186)"/>
<path d="M0 0 C3.90285767 1.58667578 6.33520982 4.13350481 9.25 7.125 C10.14203125 8.03507813 11.0340625 8.94515625 11.953125 9.8828125 C12.62859375 10.58148438 13.3040625 11.28015625 14 12 C12.38989473 16.07376031 9.46177729 18.76507069 6.375 21.75 C5.859375 22.25660156 5.34375 22.76320312 4.8125 23.28515625 C3.54616661 24.52803902 2.2736856 25.76465276 1 27 C0.67 26.34 0.34 25.68 0 25 C-0.66 25 -1.32 25 -2 25 C-2 24.34 -2 23.68 -2 23 C-2.99 22.67 -3.98 22.34 -5 22 C-5 21.34 -5 20.68 -5 20 C-5.66 20 -6.32 20 -7 20 C-8.625 18.625 -8.625 18.625 -10 17 C-10 16.34 -10 15.68 -10 15 C-10.66 15 -11.32 15 -12 15 C-11.58685438 10.55073948 -8.49538473 8.15899896 -5.4375 5.25 C-4.91736328 4.74339844 -4.39722656 4.23679688 -3.86132812 3.71484375 C-2.58089916 2.46965595 -1.29132446 1.23388498 0 0 Z " fill="#00A9E0" transform="translate(410,186)"/>
<path d="M0 0 C3.90285767 1.58667578 6.33520982 4.13350481 9.25 7.125 C10.14203125 8.03507813 11.0340625 8.94515625 11.953125 9.8828125 C12.62859375 10.58148438 13.3040625 11.28015625 14 12 C12.38989473 16.07376031 9.46177729 18.76507069 6.375 21.75 C5.859375 22.25660156 5.34375 22.76320312 4.8125 23.28515625 C3.54616661 24.52803902 2.2736856 25.76465276 1 27 C0.67 26.34 0.34 25.68 0 25 C-0.66 25 -1.32 25 -2 25 C-3.625 23.625 -3.625 23.625 -5 22 C-5 21.34 -5 20.68 -5 20 C-5.66 20 -6.32 20 -7 20 C-8.7143618 18.04072937 -10.38405168 16.04119788 -12 14 C-10.41332422 10.09714233 -7.86649519 7.66479018 -4.875 4.75 C-3.96492188 3.85796875 -3.05484375 2.9659375 -2.1171875 2.046875 C-1.41851562 1.37140625 -0.71984375 0.6959375 0 0 Z " fill="#00A9E0" transform="translate(369,186)"/>
<path d="M0 0 C3.83247336 1.58492473 6.33086291 4.03116614 9.25 6.9375 C10.14203125 7.81277344 11.0340625 8.68804687 11.953125 9.58984375 C14 12 14 12 14 15 C12.390625 16.68359375 12.390625 16.68359375 10.25 18.4375 C7.36411291 20.85263955 4.6096521 23.28161239 2 26 C-1.90285767 24.41332422 -4.33520982 21.86649519 -7.25 18.875 C-8.14203125 17.96492188 -9.0340625 17.05484375 -9.953125 16.1171875 C-10.62859375 15.41851562 -11.3040625 14.71984375 -12 14 C-10.41332422 10.09714233 -7.86649519 7.66479018 -4.875 4.75 C-3.96492187 3.85796875 -3.05484375 2.9659375 -2.1171875 2.046875 C-1.41851562 1.37140625 -0.71984375 0.6959375 0 0 Z " fill="#00A9E0" transform="translate(256,376)"/>
<path d="M0 0 C3.90285767 1.58667578 6.33520982 4.13350481 9.25 7.125 C10.14203125 8.03507813 11.0340625 8.94515625 11.953125 9.8828125 C12.62859375 10.58148438 13.3040625 11.28015625 14 12 C12.47677573 15.62593603 10.30646461 17.90054247 7.5 20.625 C6.7059375 21.40101563 5.911875 22.17703125 5.09375 22.9765625 C4.4028125 23.64429688 3.711875 24.31203125 3 25 C2.34 25.66 1.68 26.32 1 27 C-3.29 22.71 -7.58 18.42 -12 14 C-9.99006295 9.98012591 -8.06153611 7.85483005 -4.875 4.75 C-3.96492188 3.85796875 -3.05484375 2.9659375 -2.1171875 2.046875 C-1.41851562 1.37140625 -0.71984375 0.6959375 0 0 Z " fill="#00A9E0" transform="translate(100,186)"/>
<path d="M0 0 C3.90285767 1.58667578 6.33520982 4.13350481 9.25 7.125 C10.14203125 8.03507813 11.0340625 8.94515625 11.953125 9.8828125 C12.62859375 10.58148438 13.3040625 11.28015625 14 12 C12.41332422 15.90285767 9.86649519 18.33520982 6.875 21.25 C5.96492188 22.14203125 5.05484375 23.0340625 4.1171875 23.953125 C3.06917969 24.96632812 3.06917969 24.96632812 2 26 C-1.90285767 24.41332422 -4.33520982 21.86649519 -7.25 18.875 C-8.14203125 17.96492188 -9.0340625 17.05484375 -9.953125 16.1171875 C-10.62859375 15.41851562 -11.3040625 14.71984375 -12 14 C-10.41332422 10.09714233 -7.86649519 7.66479018 -4.875 4.75 C-3.96492188 3.85796875 -3.05484375 2.9659375 -2.1171875 2.046875 C-1.41851562 1.37140625 -0.71984375 0.6959375 0 0 Z " fill="#00A9E0" transform="translate(336,186)"/>
</svg>
