<?xml version="1.0" encoding="UTF-8"?>
<svg version="1.1" xmlns="http://www.w3.org/2000/svg" width="600" height="600">
<path d="M0 0 C0.91265625 -0.05414062 1.8253125 -0.10828125 2.765625 -0.1640625 C15.0300143 -0.38998546 26.64624051 3.98203982 38.25 7.5 C40.73824636 8.24621011 43.22652849 8.99230092 45.71484375 9.73828125 C53.21399909 11.99391865 60.70199354 14.28565398 68.18923187 16.58047485 C74.23027264 18.43091299 80.27346546 20.27432355 86.31636429 22.11868286 C87.86711513 22.59202391 89.41783276 23.06547379 90.9685173 23.53903198 C102.38308774 27.02465485 113.8052175 30.48439391 125.234375 33.921875 C125.95414898 34.13843498 126.67392296 34.35499496 127.41550827 34.57811737 C133.65405084 36.45506312 139.89279018 38.33134812 146.13336182 40.20153809 C195.97530386 55.13939306 195.97530386 55.13939306 205.8515625 71.0859375 C210.61650884 80.14212206 211.54340186 88.33511805 211.47705078 98.42382812 C211.47734283 99.5954248 211.47763489 100.76702148 211.47793579 101.97412109 C211.47654825 105.8265741 211.4610139 109.678831 211.4453125 113.53125 C211.44158033 116.2102491 211.43863587 118.88923749 211.43673706 121.5682373 C211.43053839 127.88621292 211.41414958 134.20411875 211.39403808 140.52206373 C211.37162866 147.71920041 211.36067301 154.91634054 211.35064721 162.11350346 C211.32978179 176.90903788 211.29463742 191.70451772 211.25 206.5 C212.22646484 206.63575439 213.20292969 206.77150879 214.20898438 206.91137695 C217.91476117 207.427611 221.61982028 207.94885546 225.32470703 208.47143555 C226.91273857 208.69475748 228.50094904 208.91681154 230.08935547 209.13745117 C268.51974459 214.47973769 268.51974459 214.47973769 281.5625 227.875 C288.39364847 238.50123095 286.48102771 249.79815039 284.20214844 261.58398438 C283.98424149 262.74956375 283.76633453 263.91514313 283.54182434 265.11604309 C282.94723235 268.28473643 282.34451367 271.45173815 281.73735714 274.6180439 C281.22929405 277.27368088 280.72710801 279.93041534 280.22492337 282.58716917 C279.03913077 288.86030164 277.8441836 295.13164046 276.64306641 301.40185547 C275.40902654 307.8446354 274.18897515 314.28994899 272.97605681 320.73673582 C271.929533 326.29686194 270.87504285 331.85543573 269.81411195 337.41283083 C269.18260249 340.72097937 268.55382711 344.02958168 267.93242645 347.33964539 C267.23654665 351.03371687 266.52765453 354.72506551 265.81542969 358.41601562 C265.6147438 359.49579178 265.41405792 360.57556793 265.20729065 361.68806458 C262.82628052 373.85974018 259.16487202 383.13744619 249.1875 390.875 C243.54246408 393.99778583 238.51858022 394.83094054 232.125 394.75 C231.01427124 394.74419922 231.01427124 394.74419922 229.88110352 394.73828125 C223.54809215 394.63976622 217.44432016 393.8367319 211.25 392.5 C211.27827881 393.40661377 211.27827881 393.40661377 211.30712891 394.33154297 C211.41724897 400.61564741 210.83409589 406.46406468 209.625 412.625 C209.44678711 413.53660889 209.26857422 414.44821777 209.08496094 415.38745117 C207.33957846 423.81977491 204.75827773 431.6462419 201.25 439.5 C200.95609375 440.15806641 200.6621875 440.81613281 200.359375 441.49414062 C187.41621162 469.87586541 165.53877295 494.25948182 141.25 513.5 C140.11683026 514.43288391 138.98540209 515.36788619 137.85546875 516.3046875 C106.29089725 542.30607266 44.7250906 586.76459044 2.02929688 588.59521484 C-3.75134982 587.86783963 -8.84838556 586.27966787 -14.25 584.125 C-15.15016846 583.77268311 -16.05033691 583.42036621 -16.9777832 583.05737305 C-54.41208626 568.21621364 -90.92924799 550.0335541 -123.375 526 C-124.00688232 525.53352051 -124.63876465 525.06704102 -125.28979492 524.58642578 C-133.31839429 518.63015176 -140.98856139 512.39637523 -148.375 505.65625 C-150.51386558 503.7143852 -152.68419385 501.82022404 -154.875 499.9375 C-162.6730627 493.10833487 -169.34556209 485.64513129 -175.75 477.5 C-176.49378906 476.5615625 -177.23757812 475.623125 -178.00390625 474.65625 C-195.93715753 451.45218225 -209.96655233 422.44070445 -208.75 392.5 C-209.41902344 392.644375 -210.08804688 392.78875 -210.77734375 392.9375 C-221.26592189 394.96482249 -235.0661719 397.22270278 -244.83203125 391.8203125 C-254.27490915 385.31991997 -259.41240635 378.05772349 -261.66157532 366.70437622 C-261.83513046 365.74490082 -262.00868561 364.78542542 -262.1875 363.796875 C-262.38953537 362.7532077 -262.59157074 361.70954041 -262.79972839 360.63424683 C-263.46519705 357.17556749 -264.10791073 353.71308955 -264.75 350.25 C-265.21401217 347.80624238 -265.6792915 345.36272507 -266.14575195 342.91943359 C-267.01965693 338.32918667 -267.88769806 333.73792607 -268.74767399 329.14505577 C-270.28367258 320.94209532 -271.85389441 312.74612542 -273.4382019 304.55236816 C-274.50102946 299.05550017 -275.55611188 293.55715655 -276.608778 288.05833435 C-277.34318466 284.22211362 -278.07975202 280.38634361 -278.82202148 276.55163574 C-279.52489753 272.91746914 -280.21832621 269.2816148 -280.90499306 265.64435196 C-281.28011127 263.66926035 -281.66433258 261.69590435 -282.0488739 259.72262573 C-284.09390714 248.80684867 -285.30851591 239.48898007 -279.75 229.5 C-277.65707316 226.54192766 -275.36245449 224.00593811 -272.75 221.5 C-272.27304687 221.01660156 -271.79609375 220.53320312 -271.3046875 220.03515625 C-261.2968353 211.41582805 -241.9883116 211.10572994 -229.375 209.25 C-227.58583578 208.97983945 -225.79677252 208.70900944 -224.0078125 208.4375 C-211.14687329 206.5 -211.14687329 206.5 -208.75 206.5 C-208.75276538 205.89077005 -208.75553076 205.28154011 -208.75837994 204.65384865 C-208.82477641 189.79591504 -208.87434686 174.93799585 -208.90543652 160.07995033 C-208.92087279 152.89455444 -208.9418999 145.70925789 -208.97631836 138.52392578 C-209.00632043 132.25756299 -209.02559852 125.99127219 -209.03226548 119.72483957 C-209.03615957 116.41006117 -209.04684238 113.09553534 -209.06719017 109.78081131 C-209.08905363 106.07071108 -209.09196312 102.36103348 -209.09057617 98.65087891 C-209.101362 97.56474304 -209.11214783 96.47860718 -209.1232605 95.35955811 C-209.06815023 81.68292658 -204.3059804 70.52459744 -194.94921875 60.5625 C-189.0124875 54.9948373 -182.37335901 52.21967969 -174.7043457 49.72216797 C-173.92006101 49.4640074 -173.13577631 49.20584682 -172.32772541 48.9398632 C-162.88288323 45.85454637 -153.37059328 42.99208151 -143.85546875 40.1328125 C-141.87099352 39.5343396 -139.88658976 38.93562964 -137.9022522 38.33670044 C-132.65843691 36.7546519 -127.41368498 35.17573167 -122.16870499 33.59754944 C-116.75282853 31.96744314 -111.33774758 30.33469869 -105.92260742 28.70214844 C-99.48168336 26.76051034 -93.04068 24.81913742 -86.59925842 22.87915039 C-75.33400242 19.48619788 -64.07047668 16.08769703 -52.81149101 12.67399216 C-50.86618841 12.08422102 -48.92079152 11.49476204 -46.97535706 10.90542603 C-40.13529924 8.83344419 -40.13529924 8.83344419 -33.29647827 6.75738525 C-30.35061672 5.86223443 -27.40393321 4.96984356 -24.45703125 4.078125 C-23.62837555 3.82539825 -22.79971985 3.57267151 -21.94595337 3.31228638 C-14.53099845 1.07399428 -7.74441565 0.18150974 0 0 Z " fill="#0064B4" transform="translate(298.75,5.5)"/>
<path d="M0 0 C3.6579285 0.00008071 7.31573027 -0.00679242 10.97363281 -0.02050781 C36.66261629 -0.11518663 62.21952051 0.55737304 87.86492157 2.06602859 C90.69468809 2.23192646 93.52487449 2.3903054 96.35498047 2.55029297 C101.20564071 2.83285069 106.05285446 3.15231594 110.89941406 3.49780273 C111.75376038 3.55810669 112.60810669 3.61841064 113.48834229 3.68054199 C159.69125865 6.98171852 206.0490245 12.0275679 251.71191406 19.87280273 C252.77708252 20.05069336 253.84225098 20.22858398 254.93969727 20.41186523 C263.44167745 21.97178325 271.01379935 24.63417384 276.48188782 31.65449524 C281.44998655 40.52438498 276.89380243 54.25054383 275.01269531 63.79858398 C274.70980275 65.38141845 274.40791967 66.96444639 274.10697937 68.5476532 C273.31566368 72.69475023 272.5098096 76.83889186 271.70098877 80.98260498 C271.05552396 84.30208073 270.42030905 87.62347601 269.78566074 90.94503403 C266.8124284 106.50555677 263.80009437 122.05688937 260.48628235 137.54914856 C258.9319573 144.8447739 257.60988396 152.17302959 256.38348389 159.53056335 C255.31902021 165.79164178 253.21505356 170.04778935 248.46191406 174.43530273 C240.40866801 179.93508053 232.05747292 178.23805036 222.92675781 176.79467773 C221.97939758 176.65010635 221.03203735 176.50553497 220.05596924 176.35658264 C218.0319378 176.04749374 216.00827362 175.73599178 213.98495483 175.42227173 C208.65150396 174.59724264 203.31441264 173.79643482 197.97753906 172.99389648 C196.92265793 172.83495407 195.86777679 172.67601166 194.78092957 172.51225281 C151.69412605 166.0357726 108.39468744 162.46828787 64.89941406 160.18530273 C64.17010681 160.14663086 63.44079956 160.10795898 62.68939209 160.06811523 C24.24596169 158.05988501 -14.65696918 158.31572018 -53.10058594 160.18530273 C-55.05496582 160.27400635 -55.05496582 160.27400635 -57.04882812 160.36450195 C-106.96627859 162.65308646 -156.81881798 167.98921005 -206.14111328 175.95019531 C-207.07513977 176.09863892 -208.00916626 176.24708252 -208.97149658 176.40002441 C-210.70371904 176.67583581 -212.43506434 176.95724795 -214.16522217 177.24572754 C-229.56490886 179.68765806 -229.56490886 179.68765806 -236.10058594 175.18530273 C-242.90987869 168.57196085 -244.44739022 162.03555767 -245.92871094 152.89233398 C-247.83081782 141.5698972 -249.98389377 130.31012945 -252.22052002 119.04962158 C-252.869704 115.77640863 -253.5139356 112.50225502 -254.15673828 109.2277832 C-256.07343152 99.46443658 -257.99565406 89.70231952 -259.9432373 79.94508362 C-260.70185058 76.13133245 -261.45041835 72.31565795 -262.19641113 68.49942017 C-262.54406806 66.73272552 -262.89606866 64.96687903 -263.25280762 63.20199585 C-268.36771636 37.87464215 -268.36771636 37.87464215 -264.38818359 31.39868164 C-258.90973664 24.70062638 -252.83744614 21.98047378 -244.37011719 20.72045898 C-243.63158508 20.60241913 -242.89305298 20.48437927 -242.13214111 20.36276245 C-239.72724286 19.98107393 -237.3203949 19.61395338 -234.91308594 19.24780273 C-233.22149925 18.9841961 -231.53001244 18.71994773 -229.83862305 18.45507812 C-226.46394291 17.92852413 -223.08836889 17.40835735 -219.71191406 16.89331055 C-215.89539602 16.31018273 -212.08337235 15.70257631 -208.27246094 15.08374023 C-161.23301959 7.5859429 -113.08969538 3.37887414 -65.51062012 1.29244995 C-63.81508418 1.21706847 -62.11969951 1.13824497 -60.42443848 1.05691528 C-40.28387011 0.10260864 -20.15881502 -0.00234537 0 0 Z " fill="#FDFDFD" transform="translate(294.1005859375,209.814697265625)"/>
<path d="M0 0 C1.38259861 0.41875161 2.76566217 0.83597094 4.14916992 1.25170898 C6.87481158 2.07334317 9.5975711 2.90352757 12.31787109 3.74267578 C15.39094701 4.6877047 18.4676515 5.61582489 21.55078125 6.52734375 C31.91988979 9.59370704 42.24762221 12.79504439 52.5793457 15.98461914 C59.18875971 18.02155008 65.80863662 20.01170284 72.44995117 21.94165039 C78.98770916 23.85103309 85.49279738 25.86433188 92 27.875 C99.07236815 30.05935027 106.14447795 32.2382682 113.25 34.3125 C113.87640381 34.49683594 114.50280762 34.68117187 115.14819336 34.87109375 C119.23833587 36.07346611 123.33341083 37.25730833 127.43197632 38.43067932 C130.13275619 39.20716439 132.83030883 39.99451158 135.52746582 40.78347778 C136.86675276 41.17276755 138.20731047 41.55771611 139.54919434 41.93795776 C158.0241884 47.17906823 158.0241884 47.17906823 163.4375 55 C164.14712891 55.99386719 164.14712891 55.99386719 164.87109375 57.0078125 C166.83698782 60.25936047 167.12426374 62.93103767 167.12025452 66.63957214 C167.12231651 68.10982094 167.12231651 68.10982094 167.12442017 69.60977173 C167.12082489 70.68367157 167.11722961 71.75757141 167.11352539 72.86401367 C167.11367142 73.99586594 167.11381744 75.1277182 167.1139679 76.29386902 C167.11326995 80.04358827 167.10548304 83.79325815 167.09765625 87.54296875 C167.09579165 90.13942945 167.09436795 92.73589051 167.09336853 95.33235168 C167.08993752 101.47338989 167.08205206 107.61440765 167.07201904 113.75543815 C167.06084438 120.7469079 167.05534404 127.73837849 167.05032361 134.72985494 C167.03986909 149.11157952 167.02227808 163.49328913 167 177.875 C161.91032827 177.92800599 156.90833115 177.87815355 151.83886719 177.35595703 C150.71188416 177.2422879 149.58490112 177.12861877 148.42376709 177.01150513 C147.2268927 176.88653656 146.03001831 176.76156799 144.796875 176.6328125 C142.84985506 176.43629216 140.9028345 176.23977778 138.95578384 176.04356194 C134.88467445 175.6318422 130.81436465 175.2122966 126.74395752 174.79370117 C107.17991247 172.78331405 87.63122388 171.09706001 68 169.875 C66.26804799 169.76183744 64.53611263 169.64841968 62.80419922 169.53466797 C5.61384433 165.8784249 -52.82739958 166.01122099 -110 169.875 C-110.77508911 169.92591797 -111.55017822 169.97683594 -112.34875488 170.02929688 C-128.79598989 171.11212958 -145.19998289 172.59236604 -161.60546875 174.1796875 C-162.78032837 174.29332138 -163.95518799 174.40695526 -165.16564941 174.52403259 C-170.99568637 175.0897103 -176.82482727 175.66301453 -182.65283203 176.24926758 C-183.73663651 176.35671295 -184.82044098 176.46415833 -185.93708801 176.57485962 C-187.96584358 176.77603525 -189.99426752 176.98059779 -192.02226257 177.18930054 C-192.94151016 177.27982697 -193.86075775 177.37035339 -194.80786133 177.46362305 C-195.59703445 177.5433989 -196.38620758 177.62317474 -197.19929504 177.70536804 C-201.13368632 177.94366465 -205.05970217 177.90690348 -209 177.875 C-209.09358322 162.8887131 -209.16404756 147.90244892 -209.20724869 132.9159317 C-209.22784399 125.95687573 -209.25590609 118.99800168 -209.30175781 112.0390625 C-209.34599641 105.32172651 -209.3691464 98.60461843 -209.37950897 91.88713074 C-209.38689265 89.32591276 -209.40131119 86.76470497 -209.42292023 84.2035675 C-209.45200906 80.61269901 -209.45595353 77.02260823 -209.45410156 73.43164062 C-209.46848267 72.37571716 -209.48286377 71.3197937 -209.49768066 70.23187256 C-209.45668407 62.87275822 -208.19006155 57.65994482 -203.32421875 51.88671875 C-202.78410156 51.44972656 -202.24398437 51.01273438 -201.6875 50.5625 C-201.15511719 50.11261719 -200.62273437 49.66273437 -200.07421875 49.19921875 C-195.07851219 46.00986936 -189.44180909 44.28866327 -183.8125 42.5625 C-183.12961914 42.35230225 -182.44673828 42.14210449 -181.74316406 41.92553711 C-179.49707111 41.23654381 -177.24893493 40.55465705 -175 39.875 C-173.82800049 39.52066895 -173.82800049 39.52066895 -172.63232422 39.15917969 C-166.75821296 37.3866242 -160.87931324 35.63020685 -155 33.875 C-151.9371638 32.95945366 -148.87471831 32.04261077 -145.8125 31.125 C-145.02061279 30.88789307 -144.22872559 30.65078613 -143.4128418 30.40649414 C-137.98489212 28.77847252 -132.5617552 27.13494646 -127.140625 25.484375 C-124.28134168 24.61428174 -121.42195439 23.74453089 -118.5625 22.875 C-117.84333405 22.65624207 -117.12416809 22.43748413 -116.38320923 22.21209717 C-107.94343537 19.64698295 -99.4944026 17.12933532 -91 14.75 C-82.29807583 12.3122454 -73.71070569 9.56203299 -65.11474609 6.77612305 C-57.3963265 4.28768725 -49.6469951 1.99884537 -41.8125 -0.09375 C-39.4893105 -0.72215372 -37.17375646 -1.3811355 -34.875 -2.09375 C-22.51285794 -5.88667995 -12.12806234 -3.7900311 0 0 Z " fill="#FDFDFE" transform="translate(321,31.125)"/>
<path d="M0 0 C0.91265625 -0.05414062 1.8253125 -0.10828125 2.765625 -0.1640625 C15.0300143 -0.38998546 26.64624051 3.98203982 38.25 7.5 C40.73824636 8.24621011 43.22652849 8.99230092 45.71484375 9.73828125 C53.21399909 11.99391865 60.70199354 14.28565398 68.18923187 16.58047485 C74.23027264 18.43091299 80.27346546 20.27432355 86.31636429 22.11868286 C87.86711513 22.59202391 89.41783276 23.06547379 90.9685173 23.53903198 C102.38308774 27.02465485 113.8052175 30.48439391 125.234375 33.921875 C125.95414898 34.13843498 126.67392296 34.35499496 127.41550827 34.57811737 C133.65405084 36.45506312 139.89279018 38.33134812 146.13336182 40.20153809 C195.97530386 55.13939306 195.97530386 55.13939306 205.8515625 71.0859375 C210.61650884 80.14212206 211.54340186 88.33511805 211.47705078 98.42382812 C211.47734283 99.5954248 211.47763489 100.76702148 211.47793579 101.97412109 C211.47654825 105.8265741 211.4610139 109.678831 211.4453125 113.53125 C211.44158033 116.2102491 211.43863587 118.88923749 211.43673706 121.5682373 C211.43053839 127.88621292 211.41414958 134.20411875 211.39403808 140.52206373 C211.37162866 147.71920041 211.36067301 154.91634054 211.35064721 162.11350346 C211.32978179 176.90903788 211.29463742 191.70451772 211.25 206.5 C212.22646484 206.63575439 213.20292969 206.77150879 214.20898438 206.91137695 C217.91476117 207.427611 221.61982028 207.94885546 225.32470703 208.47143555 C226.91273857 208.69475748 228.50094904 208.91681154 230.08935547 209.13745117 C268.51974459 214.47973769 268.51974459 214.47973769 281.5625 227.875 C288.39364847 238.50123095 286.48102771 249.79815039 284.20214844 261.58398438 C283.98424149 262.74956375 283.76633453 263.91514313 283.54182434 265.11604309 C282.94723235 268.28473643 282.34451367 271.45173815 281.73735714 274.6180439 C281.22929405 277.27368088 280.72710801 279.93041534 280.22492337 282.58716917 C279.03913077 288.86030164 277.8441836 295.13164046 276.64306641 301.40185547 C275.40902654 307.8446354 274.18897515 314.28994899 272.97605681 320.73673582 C271.929533 326.29686194 270.87504285 331.85543573 269.81411195 337.41283083 C269.18260249 340.72097937 268.55382711 344.02958168 267.93242645 347.33964539 C267.23654665 351.03371687 266.52765453 354.72506551 265.81542969 358.41601562 C265.6147438 359.49579178 265.41405792 360.57556793 265.20729065 361.68806458 C262.82628052 373.85974018 259.16487202 383.13744619 249.1875 390.875 C243.54246408 393.99778583 238.51858022 394.83094054 232.125 394.75 C231.01427124 394.74419922 231.01427124 394.74419922 229.88110352 394.73828125 C223.54809215 394.63976622 217.44432016 393.8367319 211.25 392.5 C211.27827881 393.40661377 211.27827881 393.40661377 211.30712891 394.33154297 C211.41724897 400.61564741 210.83409589 406.46406468 209.625 412.625 C209.44678711 413.53660889 209.26857422 414.44821777 209.08496094 415.38745117 C207.33957846 423.81977491 204.75827773 431.6462419 201.25 439.5 C200.95609375 440.15806641 200.6621875 440.81613281 200.359375 441.49414062 C187.41621162 469.87586541 165.53877295 494.25948182 141.25 513.5 C140.11683026 514.43288391 138.98540209 515.36788619 137.85546875 516.3046875 C106.29089725 542.30607266 44.7250906 586.76459044 2.02929688 588.59521484 C-3.75134982 587.86783963 -8.84838556 586.27966787 -14.25 584.125 C-15.15016846 583.77268311 -16.05033691 583.42036621 -16.9777832 583.05737305 C-54.41208626 568.21621364 -90.92924799 550.0335541 -123.375 526 C-124.00688232 525.53352051 -124.63876465 525.06704102 -125.28979492 524.58642578 C-133.31839429 518.63015176 -140.98856139 512.39637523 -148.375 505.65625 C-150.51386558 503.7143852 -152.68419385 501.82022404 -154.875 499.9375 C-162.6730627 493.10833487 -169.34556209 485.64513129 -175.75 477.5 C-176.49378906 476.5615625 -177.23757812 475.623125 -178.00390625 474.65625 C-195.93715753 451.45218225 -209.96655233 422.44070445 -208.75 392.5 C-209.41902344 392.644375 -210.08804688 392.78875 -210.77734375 392.9375 C-221.26592189 394.96482249 -235.0661719 397.22270278 -244.83203125 391.8203125 C-254.27490915 385.31991997 -259.41240635 378.05772349 -261.66157532 366.70437622 C-261.83513046 365.74490082 -262.00868561 364.78542542 -262.1875 363.796875 C-262.38953537 362.7532077 -262.59157074 361.70954041 -262.79972839 360.63424683 C-263.46519705 357.17556749 -264.10791073 353.71308955 -264.75 350.25 C-265.21401217 347.80624238 -265.6792915 345.36272507 -266.14575195 342.91943359 C-267.01965693 338.32918667 -267.88769806 333.73792607 -268.74767399 329.14505577 C-270.28367258 320.94209532 -271.85389441 312.74612542 -273.4382019 304.55236816 C-274.50102946 299.05550017 -275.55611188 293.55715655 -276.608778 288.05833435 C-277.34318466 284.22211362 -278.07975202 280.38634361 -278.82202148 276.55163574 C-279.52489753 272.91746914 -280.21832621 269.2816148 -280.90499306 265.64435196 C-281.28011127 263.66926035 -281.66433258 261.69590435 -282.0488739 259.72262573 C-284.09390714 248.80684867 -285.30851591 239.48898007 -279.75 229.5 C-277.65707316 226.54192766 -275.36245449 224.00593811 -272.75 221.5 C-272.27304687 221.01660156 -271.79609375 220.53320312 -271.3046875 220.03515625 C-261.2968353 211.41582805 -241.9883116 211.10572994 -229.375 209.25 C-227.58583578 208.97983945 -225.79677252 208.70900944 -224.0078125 208.4375 C-211.14687329 206.5 -211.14687329 206.5 -208.75 206.5 C-208.75276538 205.89077005 -208.75553076 205.28154011 -208.75837994 204.65384865 C-208.82477641 189.79591504 -208.87434686 174.93799585 -208.90543652 160.07995033 C-208.92087279 152.89455444 -208.9418999 145.70925789 -208.97631836 138.52392578 C-209.00632043 132.25756299 -209.02559852 125.99127219 -209.03226548 119.72483957 C-209.03615957 116.41006117 -209.04684238 113.09553534 -209.06719017 109.78081131 C-209.08905363 106.07071108 -209.09196312 102.36103348 -209.09057617 98.65087891 C-209.101362 97.56474304 -209.11214783 96.47860718 -209.1232605 95.35955811 C-209.06815023 81.68292658 -204.3059804 70.52459744 -194.94921875 60.5625 C-189.0124875 54.9948373 -182.37335901 52.21967969 -174.7043457 49.72216797 C-173.92006101 49.4640074 -173.13577631 49.20584682 -172.32772541 48.9398632 C-162.88288323 45.85454637 -153.37059328 42.99208151 -143.85546875 40.1328125 C-141.87099352 39.5343396 -139.88658976 38.93562964 -137.9022522 38.33670044 C-132.65843691 36.7546519 -127.41368498 35.17573167 -122.16870499 33.59754944 C-116.75282853 31.96744314 -111.33774758 30.33469869 -105.92260742 28.70214844 C-99.48168336 26.76051034 -93.04068 24.81913742 -86.59925842 22.87915039 C-75.33400242 19.48619788 -64.07047668 16.08769703 -52.81149101 12.67399216 C-50.86618841 12.08422102 -48.92079152 11.49476204 -46.97535706 10.90542603 C-40.13529924 8.83344419 -40.13529924 8.83344419 -33.29647827 6.75738525 C-30.35061672 5.86223443 -27.40393321 4.96984356 -24.45703125 4.078125 C-23.62837555 3.82539825 -22.79971985 3.57267151 -21.94595337 3.31228638 C-14.53099845 1.07399428 -7.74441565 0.18150974 0 0 Z M-9.67578125 22.765625 C-11.11352905 23.17167969 -11.11352905 23.17167969 -12.58032227 23.5859375 C-14.14931274 24.03839844 -14.14931274 24.03839844 -15.75 24.5 C-16.87913818 24.82226562 -18.00827637 25.14453125 -19.17163086 25.4765625 C-22.95014196 26.55955417 -26.72565897 27.65258948 -30.5 28.75 C-31.17708008 28.94664246 -31.85416016 29.14328491 -32.55175781 29.34588623 C-44.0596882 32.69032787 -55.53550894 36.13178751 -66.99072266 39.65283203 C-71.8039122 41.13060302 -76.62073772 42.59642409 -81.4375 44.0625 C-82.39462891 44.35398926 -83.35175781 44.64547852 -84.33789062 44.94580078 C-91.28382961 47.05921532 -98.23649057 49.14951177 -105.19213867 51.23071289 C-111.55048916 53.13513115 -117.90115315 55.06415677 -124.25 57 C-130.7025011 58.96671284 -137.15586412 60.93028045 -143.61621094 62.87109375 C-145.27368947 63.36917605 -146.93060337 63.8691416 -148.58691406 64.37109375 C-152.54152491 65.56433656 -156.49978894 66.71287908 -160.4921875 67.7734375 C-171.87240817 70.8350104 -179.37170037 74.25606422 -185.75 84.5 C-186.71967004 87.40901013 -186.87352446 89.23987491 -186.87025452 92.26457214 C-186.87162918 93.24473801 -186.87300385 94.22490387 -186.87442017 95.23477173 C-186.87082489 96.30867157 -186.86722961 97.38257141 -186.86352539 98.48901367 C-186.86367142 99.62086594 -186.86381744 100.7527182 -186.8639679 101.91886902 C-186.86326995 105.66858827 -186.85548304 109.41825815 -186.84765625 113.16796875 C-186.84579165 115.76442945 -186.84436795 118.36089051 -186.84336853 120.95735168 C-186.83993752 127.09838989 -186.83205206 133.23940765 -186.82201904 139.38043815 C-186.81084438 146.3719079 -186.80534404 153.36337849 -186.80032361 160.35485494 C-186.78986909 174.73657952 -186.77227808 189.11828913 -186.75 203.5 C-181.76259622 203.5500501 -176.85659673 203.52399012 -171.89038086 202.99682617 C-170.82296158 202.88628906 -169.7555423 202.77575195 -168.65577698 202.66186523 C-167.52026901 202.54012939 -166.38476105 202.41839355 -165.21484375 202.29296875 C-162.71147552 202.03426763 -160.20805529 201.77606925 -157.70458984 201.51831055 C-156.39689636 201.38242523 -155.08920288 201.24653992 -153.74188232 201.10653687 C-132.72715912 198.9285587 -111.71709359 196.96254977 -90.625 195.6875 C-89.69952362 195.63065033 -88.77404724 195.57380066 -87.82052612 195.51522827 C-81.46571272 195.13043984 -75.10925233 194.80179946 -68.75 194.5 C-67.31577194 194.42901596 -67.31577194 194.42901596 -65.85256958 194.3565979 C-43.88771143 193.29726581 -21.92245438 193.30023715 0.0625 193.3125 C1.48770966 193.31267939 1.48770966 193.31267939 2.94171143 193.3128624 C32.08733106 193.31750083 61.15897969 193.53400103 90.25 195.5 C91.02508911 195.55091797 91.80017822 195.60183594 92.59875488 195.65429688 C109.04598989 196.73712958 125.44998289 198.21736604 141.85546875 199.8046875 C143.03032837 199.91832138 144.20518799 200.03195526 145.41564941 200.14903259 C151.24568637 200.7147103 157.07482727 201.28801453 162.90283203 201.87426758 C163.98663651 201.98171295 165.07044098 202.08915833 166.18708801 202.19985962 C168.21584358 202.40103525 170.24426752 202.60559779 172.27226257 202.81430054 C173.19151016 202.90482697 174.11075775 202.99535339 175.05786133 203.08862305 C175.84703445 203.1683989 176.63620758 203.24817474 177.44929504 203.33036804 C181.38368632 203.56866465 185.30970217 203.53190348 189.25 203.5 C189.34358322 188.5137131 189.41404756 173.52744892 189.45724869 158.5409317 C189.47784399 151.58187573 189.50590609 144.62300168 189.55175781 137.6640625 C189.59599641 130.94672651 189.6191464 124.22961843 189.62950897 117.51213074 C189.63689265 114.95091276 189.65131119 112.38970497 189.67292023 109.8285675 C189.70200906 106.23769901 189.70595353 102.64760823 189.70410156 99.05664062 C189.72567322 97.47275543 189.72567322 97.47275543 189.74768066 95.85687256 C189.70267613 87.77831198 187.99642646 82.00643011 182.1875 76.25 C174.35613678 70.10485477 163.19136777 68.1855787 153.80255127 65.38171387 C150.8949433 64.51328278 147.98951334 63.6376668 145.08392334 62.76251221 C143.60506298 62.31714286 142.1260999 61.87211444 140.64703369 61.4274292 C133.8821051 59.39291104 127.12648247 57.32870847 120.375 55.25 C118.78703613 54.76152588 118.78703613 54.76152588 117.16699219 54.26318359 C110.91264315 52.33461194 104.67230689 50.36566656 98.4375 48.375 C91.09859698 46.03366356 83.71106381 43.90444447 76.2956543 41.81982422 C69.90321635 40.0085063 63.57236464 38.04150959 57.25 36 C47.47712617 32.8489938 37.64716824 29.96888208 27.75634766 27.21289062 C25.28006937 26.50855275 22.81761932 25.76771452 20.35546875 25.015625 C10.10338496 21.92612996 0.93119328 19.74721988 -9.67578125 22.765625 Z M-226.212677 221.46405029 C-230.89958261 222.21390944 -235.59052409 222.91945207 -240.2890625 223.59375 C-242.44280141 223.91604533 -244.59645557 224.23890778 -246.75 224.5625 C-247.67474121 224.68826416 -248.59948242 224.81402832 -249.55224609 224.94360352 C-257.41646057 226.1786837 -264.64834111 229.79599761 -269.58406067 236.24237061 C-274.17555596 245.1329659 -269.72211893 258.67827528 -267.86328125 268.11328125 C-267.56038869 269.69611572 -267.25850561 271.27914366 -266.95756531 272.86235046 C-266.16624962 277.00944749 -265.36039554 281.15358913 -264.55157471 285.29730225 C-263.9061099 288.61677799 -263.27089499 291.93817328 -262.63624668 295.25973129 C-259.66301434 310.82025403 -256.65068031 326.37158664 -253.33686829 341.86384583 C-251.78255598 349.15941137 -250.46027182 356.48758865 -249.23422241 363.84512329 C-247.86442427 371.89951091 -244.20494654 376.69312491 -237.75 381.5 C-230.37475809 383.95841397 -222.31817043 382.15119707 -214.82421875 380.92578125 C-212.66598165 380.58653097 -210.507695 380.24759577 -208.34936523 379.90893555 C-207.22295624 379.72986664 -206.09654724 379.55079773 -204.93600464 379.36630249 C-156.12095302 371.63903043 -107.10541399 366.86418675 -57.75 364.5 C-56.54891602 364.44070313 -55.34783203 364.38140625 -54.11035156 364.3203125 C-16.13353319 362.52865131 22.28152536 362.51614401 60.25 364.5 C61.06380127 364.54147156 61.87760254 364.58294312 62.71606445 364.62567139 C117.30317852 367.42304057 171.73926509 372.78511214 225.6264801 382.08808899 C232.76360524 383.20866766 238.21267957 382.70156133 244.25 378.5 C250.69304828 372.54629716 251.74022967 365.46498385 253.078125 357.20703125 C254.98023188 345.88459447 257.13330783 334.62482672 259.36993408 323.36431885 C260.01911807 320.0911059 260.66334966 316.81695229 261.30615234 313.54248047 C263.22284559 303.77913385 265.14506813 294.01701678 267.09265137 284.25978088 C267.85126464 280.44602972 268.59983241 276.63035521 269.3458252 272.81411743 C269.69348212 271.04742278 270.04548272 269.2815763 270.40222168 267.51669312 C274.56087366 251.23556542 274.56087366 251.23556542 271.56689453 235.71337891 C266.18340953 229.01514309 259.81476218 226.53048781 251.51953125 225.140625 C250.87328293 225.03078781 250.22703461 224.92095062 249.561203 224.80778503 C247.39660699 224.4443312 245.22994031 224.09606609 243.0625 223.75 C242.29413818 223.62505157 241.52577637 223.50010315 240.73413086 223.37136841 C184.244214 214.2067199 127.40192917 208.34577243 70.25 205.5 C68.8490509 205.4274147 68.8490509 205.4274147 67.4197998 205.35336304 C47.71258543 204.35899864 28.00674691 204.31245269 8.27978516 204.31469727 C4.62185654 204.31477787 0.96405493 204.30792211 -2.69384766 204.29418945 C-77.31841188 204.01863827 -152.51125198 209.67112253 -226.212677 221.46405029 Z M-187.75 388.5 C-188.9767697 424.07632133 -169.36898398 453.8669483 -146.11962891 478.94091797 C-142.21578783 483.08836072 -138.14060281 486.87022367 -133.75 490.5 C-132.80898437 491.31726563 -131.86796875 492.13453125 -130.8984375 492.9765625 C-105.58745274 514.92559418 -76.54426878 531.44554846 -46.75 546.5 C-45.95158691 546.90460449 -45.15317383 547.30920898 -44.33056641 547.72607422 C-38.86865378 550.46931369 -33.34236232 553.03428555 -27.75 555.5 C-26.63270508 555.9954834 -25.51541016 556.4909668 -24.36425781 557.00146484 C-21.2747272 558.36090204 -18.16894502 559.67681573 -15.05111694 560.96994019 C-13.23217665 561.73129956 -11.42506517 562.52072617 -9.6184082 563.31079102 C-3.13737483 565.93793817 1.17361044 567.26781307 7.78881836 564.6171875 C8.6010083 564.24851562 9.41319824 563.87984375 10.25 563.5 C12.0728403 562.79928047 13.8957609 562.09876981 15.71875 561.3984375 C46.52864687 548.67663324 76.90514723 533.65684601 104.25 514.5 C105.32765625 513.7575 106.4053125 513.015 107.515625 512.25 C143.45938579 487.24763603 180.42745332 453.2160937 188.79541016 408.20068359 C189.91588736 401.5545654 190.36269754 395.2485938 190.25 388.5 C181.30831253 386.23601874 172.20299734 385.2269362 163.0625 384.125 C162.17673279 384.01739349 161.29096558 383.90978699 160.37835693 383.79891968 C126.78526522 379.74491573 93.04779547 377.06376588 59.25 375.5 C58.09048828 375.44215332 56.93097656 375.38430664 55.73632812 375.32470703 C-68.63281287 365.30613361 -68.63281287 365.30613361 -187.75 388.5 Z " fill="#535353" transform="translate(298.75,5.5)"/>
<path d="M0 0 C0.91265625 -0.05414062 1.8253125 -0.10828125 2.765625 -0.1640625 C15.0300143 -0.38998546 26.64624051 3.98203982 38.25 7.5 C40.73824636 8.24621011 43.22652849 8.99230092 45.71484375 9.73828125 C53.21399909 11.99391865 60.70199354 14.28565398 68.18923187 16.58047485 C74.23027264 18.43091299 80.27346546 20.27432355 86.31636429 22.11868286 C87.86711513 22.59202391 89.41783276 23.06547379 90.9685173 23.53903198 C102.38308774 27.02465485 113.8052175 30.48439391 125.234375 33.921875 C125.95414898 34.13843498 126.67392296 34.35499496 127.41550827 34.57811737 C133.65405084 36.45506312 139.89279018 38.33134812 146.13336182 40.20153809 C195.97530386 55.13939306 195.97530386 55.13939306 205.8515625 71.0859375 C210.61650884 80.14212206 211.54340186 88.33511805 211.47705078 98.42382812 C211.47734283 99.5954248 211.47763489 100.76702148 211.47793579 101.97412109 C211.47654825 105.8265741 211.4610139 109.678831 211.4453125 113.53125 C211.44158033 116.2102491 211.43863587 118.88923749 211.43673706 121.5682373 C211.43053839 127.88621292 211.41414958 134.20411875 211.39403808 140.52206373 C211.37162866 147.71920041 211.36067301 154.91634054 211.35064721 162.11350346 C211.32978179 176.90903788 211.29463742 191.70451772 211.25 206.5 C208.49968413 206.35888117 205.74984582 206.21228835 203 206.0625 C202.22269531 206.02318359 201.44539063 205.98386719 200.64453125 205.94335938 C199.89042969 205.90146484 199.13632812 205.85957031 198.359375 205.81640625 C197.66811523 205.77974854 196.97685547 205.74309082 196.26464844 205.70532227 C194.18371671 205.49324476 192.26427578 205.05491323 190.25 204.5 C190.24761165 203.93199991 190.24522329 203.36399982 190.24276257 202.77878761 C190.18348141 188.92212549 190.10766209 175.06563748 190.01428509 161.20916176 C189.96942688 154.5081055 189.9303568 147.80711269 189.90356445 141.10595703 C189.87749119 134.63489828 189.83705966 128.16407181 189.78681374 121.6931572 C189.77017234 119.2285489 189.75864114 116.76390046 189.75238609 114.29924393 C189.74271563 110.83808486 189.71461979 107.3775164 189.68237305 103.91650391 C189.68452568 102.39950897 189.68452568 102.39950897 189.6867218 100.85186768 C189.5722684 92.12389918 188.33155923 83.46579986 182.06811523 76.93701172 C174.38119994 70.86138618 162.53850984 69.03878882 153.25 66.25 C151.64120866 65.76326813 150.03256762 65.27603919 148.42407227 64.78833008 C145.20657035 63.81306325 141.98852603 62.83962198 138.77001953 61.86767578 C132.56987127 59.99369122 126.3778509 58.09359636 120.1875 56.1875 C119.14053955 55.86571777 118.0935791 55.54393555 117.01489258 55.21240234 C110.81085942 53.3018708 104.62136762 51.34964782 98.4375 49.375 C91.09860757 47.03363334 83.7110624 44.90444407 76.2956543 42.81982422 C69.90321635 41.0085063 63.57236464 39.04150959 57.25 37 C47.47712617 33.8489938 37.64716824 30.96888208 27.75634766 28.21289062 C25.28006937 27.50855275 22.81761932 26.76771452 20.35546875 26.015625 C10.10338496 22.92612996 0.93119328 20.74721988 -9.67578125 23.765625 C-10.63427979 24.03632813 -11.59277832 24.30703125 -12.58032227 24.5859375 C-13.62631592 24.88757813 -14.67230957 25.18921875 -15.75 25.5 C-16.87913818 25.82226562 -18.00827637 26.14453125 -19.17163086 26.4765625 C-22.95014196 27.55955417 -26.72565897 28.65258948 -30.5 29.75 C-31.17708008 29.94664246 -31.85416016 30.14328491 -32.55175781 30.34588623 C-44.0596882 33.69032787 -55.53550894 37.13178751 -66.99072266 40.65283203 C-71.8039122 42.13060302 -76.62073772 43.59642409 -81.4375 45.0625 C-82.39462891 45.35398926 -83.35175781 45.64547852 -84.33789062 45.94580078 C-91.28382961 48.05921532 -98.23649057 50.14951177 -105.19213867 52.23071289 C-111.55048916 54.13513115 -117.90115315 56.06415677 -124.25 58 C-130.7025011 59.96671284 -137.15586412 61.93028045 -143.61621094 63.87109375 C-145.27368947 64.36917605 -146.93060337 64.8691416 -148.58691406 65.37109375 C-152.54152491 66.56433656 -156.49978894 67.71287908 -160.4921875 68.7734375 C-169.80656764 71.27997164 -176.83478501 73.76052922 -183.125 81.375 C-186.88571776 88.60714953 -187.05192026 95.70824343 -187.06884766 103.68945312 C-187.07889328 104.78302124 -187.0889389 105.87658936 -187.09928894 107.0032959 C-187.13002912 110.59594222 -187.14713076 114.18851432 -187.1640625 117.78125 C-187.18278149 120.28089024 -187.20235545 122.78052422 -187.2227478 125.28015137 C-187.26876731 131.1730719 -187.30620312 137.06599741 -187.33942068 142.95900297 C-187.3815122 150.33211007 -187.43703801 157.70510601 -187.4921875 165.078125 C-187.58886209 178.21868943 -187.67366743 191.35930246 -187.75 204.5 C-189.56066927 204.84313868 -191.37368101 205.17392018 -193.1875 205.5 C-194.19683594 205.685625 -195.20617187 205.87125 -196.24609375 206.0625 C-200.43959337 206.58610307 -204.5311727 206.58533658 -208.75 206.5 C-208.82023551 191.0266868 -208.87305919 175.55338561 -208.90543652 160.07995033 C-208.92087279 152.89455444 -208.9418999 145.70925789 -208.97631836 138.52392578 C-209.00632043 132.25756299 -209.02559852 125.99127219 -209.03226548 119.72483957 C-209.03615957 116.41006117 -209.04684238 113.09553534 -209.06719017 109.78081131 C-209.08905363 106.07071108 -209.09196312 102.36103348 -209.09057617 98.65087891 C-209.101362 97.56474304 -209.11214783 96.47860718 -209.1232605 95.35955811 C-209.06815023 81.68292658 -204.3059804 70.52459744 -194.94921875 60.5625 C-189.0124875 54.9948373 -182.37335901 52.21967969 -174.7043457 49.72216797 C-173.92006101 49.4640074 -173.13577631 49.20584682 -172.32772541 48.9398632 C-162.88288323 45.85454637 -153.37059328 42.99208151 -143.85546875 40.1328125 C-141.87099352 39.5343396 -139.88658976 38.93562964 -137.9022522 38.33670044 C-132.65843691 36.7546519 -127.41368498 35.17573167 -122.16870499 33.59754944 C-116.75282853 31.96744314 -111.33774758 30.33469869 -105.92260742 28.70214844 C-99.48168336 26.76051034 -93.04068 24.81913742 -86.59925842 22.87915039 C-75.33400242 19.48619788 -64.07047668 16.08769703 -52.81149101 12.67399216 C-50.86618841 12.08422102 -48.92079152 11.49476204 -46.97535706 10.90542603 C-40.13529924 8.83344419 -40.13529924 8.83344419 -33.29647827 6.75738525 C-30.35061672 5.86223443 -27.40393321 4.96984356 -24.45703125 4.078125 C-23.62837555 3.82539825 -22.79971985 3.57267151 -21.94595337 3.31228638 C-14.53099845 1.07399428 -7.74441565 0.18150974 0 0 Z " fill="#012050" transform="translate(298.75,5.5)"/>
<path d="M0 0 C0.06469482 0.61294922 0.12938965 1.22589844 0.19604492 1.85742188 C4.54141372 41.75275632 22.88038945 75.18675288 54 101 C54.94230469 101.81855469 55.88460937 102.63710938 56.85546875 103.48046875 C82.16714485 125.42643987 111.20684274 141.94611009 141 157 C141.79841309 157.40460449 142.59682617 157.80920898 143.41943359 158.22607422 C148.88134622 160.96931369 154.40763768 163.53428555 160 166 C161.11729492 166.4954834 162.23458984 166.9909668 163.38574219 167.50146484 C166.4752728 168.86090204 169.58105498 170.17681573 172.69888306 171.46994019 C174.51782335 172.23129956 176.32493483 173.02072617 178.1315918 173.81079102 C184.61262517 176.43793817 188.92361044 177.76781307 195.53881836 175.1171875 C196.3510083 174.74851562 197.16319824 174.37984375 198 174 C199.8228403 173.29928047 201.6457609 172.59876981 203.46875 171.8984375 C234.27864687 159.17663324 264.65514723 144.15684601 292 125 C293.07765625 124.2575 294.1553125 123.515 295.265625 122.75 C330.83458313 98.00834754 367.45422676 64.32716116 375.49658203 19.70068359 C376.56087907 13.15971996 377.28819958 6.58738934 378 0 C380.75039833 0.30926968 383.50028178 0.6222884 386.25 0.9375 C387.02730469 1.02451172 387.80460937 1.11152344 388.60546875 1.20117188 C389.35957031 1.28818359 390.11367188 1.37519531 390.890625 1.46484375 C391.58188477 1.543396 392.27314453 1.62194824 392.98535156 1.70288086 C395.03695313 2.00544983 396.99782535 2.46412384 399 3 C400.36940542 19.24266979 395.57617489 36.27833576 389 51 C388.70609375 51.65806641 388.4121875 52.31613281 388.109375 52.99414062 C375.16621162 81.37586541 353.28877295 105.75948182 329 125 C327.86683026 125.93288391 326.73540209 126.86788619 325.60546875 127.8046875 C294.04089725 153.80607266 232.4750906 198.26459044 189.77929688 200.09521484 C183.99865018 199.36783963 178.90161444 197.77966787 173.5 195.625 C172.59983154 195.27268311 171.69966309 194.92036621 170.7722168 194.55737305 C133.33791374 179.71621364 96.82075201 161.5335541 64.375 137.5 C63.74311768 137.03352051 63.11123535 136.56704102 62.46020508 136.08642578 C54.43160571 130.13015176 46.76143861 123.89637523 39.375 117.15625 C37.23613442 115.2143852 35.06580615 113.32022404 32.875 111.4375 C25.0769373 104.60833487 18.40443791 97.14513129 12 89 C11.25621094 88.0615625 10.51242188 87.123125 9.74609375 86.15625 C-8.56512584 62.46312412 -22.09977427 33.48818683 -21 3 C-18.25071558 2.49576443 -15.50068857 1.99646574 -12.75 1.5 C-11.97269531 1.35691406 -11.19539063 1.21382813 -10.39453125 1.06640625 C-9.64042969 0.93105469 -8.88632813 0.79570312 -8.109375 0.65625 C-7.07248535 0.46772461 -7.07248535 0.46772461 -6.01464844 0.27539062 C-4 0 -4 0 0 0 Z " fill="#002050" transform="translate(111,394)"/>
<path d="M0 0 C0.66 0 1.32 0 2 0 C2.48919922 1.7015625 2.48919922 1.7015625 2.98828125 3.4375 C3.4295244 4.95838066 3.8709399 6.47921133 4.3125 8 C4.63250977 9.11568359 4.63250977 9.11568359 4.95898438 10.25390625 C6.05813581 14.02711267 7.24141134 17.71174147 8.66796875 21.375 C10 25 10 25 10 28 C20.23 28 30.46 28 41 28 C37.75793645 31.24206355 35.18862585 33.7577413 31.57421875 36.33203125 C30.77822266 36.90244141 29.98222656 37.47285156 29.16210938 38.06054688 C28.34548828 38.63869141 27.52886719 39.21683594 26.6875 39.8125 C25.85154297 40.40998047 25.01558594 41.00746094 24.15429688 41.62304688 C22.10581432 43.0862487 20.05436616 44.54507639 18 46 C18.60753614 52.88540958 20.49829489 58.59286472 23.00390625 64.99609375 C23.27332031 65.71410156 23.54273438 66.43210937 23.8203125 67.171875 C24.07055176 67.8122168 24.32079102 68.45255859 24.57861328 69.11230469 C25.08447944 71.37844441 24.71185626 72.81535857 24 75 C21.08289562 72.89643964 18.16639402 70.79204507 15.25 68.6875 C14.425 68.09259766 13.6 67.49769531 12.75 66.88476562 C11.95078125 66.30791016 11.1515625 65.73105469 10.328125 65.13671875 C9.22839355 64.34334106 9.22839355 64.34334106 8.10644531 63.53393555 C6.66645005 62.48531591 5.25473203 61.39703764 3.86987305 60.27661133 C2.94428589 59.64468872 2.94428589 59.64468872 2 59 C-3.02474611 59.97873315 -7.10401623 63.92319502 -11.0625 67 C-12.46776705 68.08629577 -13.87524927 69.16973324 -15.28515625 70.25 C-15.90269775 70.72953125 -16.52023926 71.2090625 -17.15649414 71.703125 C-19.03267613 73.0229871 -20.92534751 74.02814235 -23 75 C-22.33336558 68.6036849 -20.36838594 63.12084328 -18.08398438 57.140625 C-17.81779297 56.42132813 -17.55160156 55.70203125 -17.27734375 54.9609375 C-17.03234131 54.31946777 -16.78733887 53.67799805 -16.53491211 53.01708984 C-15.86458988 50.48938457 -15.65064794 48.6037686 -16 46 C-17.66889684 44.09870411 -17.66889684 44.09870411 -20.015625 42.58984375 C-20.85480469 41.99236328 -21.69398438 41.39488281 -22.55859375 40.77929688 C-23.44675781 40.17150391 -24.33492188 39.56371094 -25.25 38.9375 C-26.98647024 37.72043187 -28.72091567 36.50046866 -30.453125 35.27734375 C-31.22817383 34.74359131 -32.00322266 34.20983887 -32.80175781 33.65991211 C-35 32 -35 32 -39 28 C-28.77 28 -18.54 28 -8 28 C-7.34 25.03 -6.68 22.06 -6 19 C-5.17615077 16.19223971 -4.33422229 13.40829828 -3.4375 10.625 C-3.21642578 9.92761719 -2.99535156 9.23023438 -2.76757812 8.51171875 C-1.86420607 5.66787075 -0.94358915 2.83076745 0 0 Z " fill="#F7FAFC" transform="translate(299,431)"/>
<path d="M0 0 C3.49935152 -0.17605097 6.99754924 -0.28142307 10.5 -0.375 C11.97339844 -0.45041016 11.97339844 -0.45041016 13.4765625 -0.52734375 C19.86672813 -0.65514706 23.52702508 0.25052547 28.45898438 4.38330078 C32.26620322 8.37750281 33.17086063 12.66721256 33.4375 18 C33.23848571 23.70219208 31.63656152 27.34933922 27.5390625 31.46875 C21.82359547 36.45890395 17.59234696 37.33276729 10.25 37.625 C9.06083984 37.68300781 9.06083984 37.68300781 7.84765625 37.7421875 C5.89880584 37.836108 3.94943549 37.91912822 2 38 C1.23271212 33.15325271 0.826352 28.45011891 0.68359375 23.53515625 C0.66281265 22.85698349 0.64203156 22.17881073 0.62062073 21.48008728 C0.55590691 19.34098169 0.4966091 17.20176704 0.4375 15.0625 C0.39424016 13.60090076 0.35062366 12.13931203 0.30664062 10.67773438 C0.20030749 7.1186016 0.0988267 3.55935003 0 0 Z " fill="#303030" transform="translate(196,305)"/>
<path d="M0 0 C3.3 0 6.6 0 10 0 C11.6750644 4.10078931 13.33860345 8.20615636 15 12.3125 C15.71542969 14.06336914 15.71542969 14.06336914 16.4453125 15.84960938 C16.89648438 16.96787109 17.34765625 18.08613281 17.8125 19.23828125 C18.23144531 20.26993408 18.65039062 21.30158691 19.08203125 22.36450195 C20 25 20 25 20 28 C20.66 28 21.32 28 22 28 C22.12238037 27.28884033 22.24476074 26.57768066 22.37084961 25.8449707 C23.02182517 22.90130823 23.95536926 20.28153384 25.06640625 17.48046875 C25.6706543 15.9480957 25.6706543 15.9480957 26.28710938 14.38476562 C26.70798828 13.32966797 27.12886719 12.27457031 27.5625 11.1875 C27.98724609 10.11306641 28.41199219 9.03863281 28.84960938 7.93164062 C29.89600656 5.28625448 30.94625244 2.64246489 32 0 C34.97 0 37.94 0 41 0 C41 12.54 41 25.08 41 38 C39.02 38 37.04 38 35 38 C34.67 29.09 34.34 20.18 34 11 C33.29875 12.85625 32.5975 14.7125 31.875 16.625 C29.10652367 23.83573063 26.0885258 30.92080168 23 38 C20.6809082 37.87524414 20.6809082 37.87524414 18 37 C16.42260742 34.40795898 16.42260742 34.40795898 15.10546875 30.99609375 C14.62529297 29.78115234 14.14511719 28.56621094 13.65039062 27.31445312 C13.16233042 26.02229775 12.67470575 24.72997779 12.1875 23.4375 C11.68215693 22.14056605 11.17501586 20.84433114 10.66601562 19.54882812 C9.42628196 16.37274855 8.21084151 13.18720628 7 10 C6.67 19.24 6.34 28.48 6 38 C4.35 38 2.7 38 1 38 C0.06921053 25.31799345 -0.11185009 12.71362727 0 0 Z " fill="#303030" transform="translate(273,302)"/>
<path d="M0 0 C3.3 0 6.6 0 10 0 C11.00777029 2.74737377 12.00641446 5.49749952 13 8.25 C13.28617188 9.02730469 13.57234375 9.80460937 13.8671875 10.60546875 C14.13789063 11.35957031 14.40859375 12.11367187 14.6875 12.890625 C15.06455078 13.92751465 15.06455078 13.92751465 15.44921875 14.98535156 C16 17 16 17 16 21 C16.66 21 17.32 21 18 21 C18.2475 19.7625 18.495 18.525 18.75 17.25 C20.04818352 11.35173142 22.01439968 5.69655237 24 0 C27.63 0 31.26 0 35 0 C35 10.23 35 20.46 35 31 C32.69 31 30.38 31 28 31 C27.505 21.1 27.505 21.1 27 11 C24.69 17.6 22.38 24.2 20 31 C18.02 31 16.04 31 14 31 C11.69 24.73 9.38 18.46 7 12 C6.67 18.27 6.34 24.54 6 31 C4.02 31 2.04 31 0 31 C0 20.77 0 10.54 0 0 Z " fill="#201E53" transform="translate(202,91)"/>
<path d="M0 0 C17 0 17 0 23 4 C24.73658429 7.47316857 24.60094854 11.21141136 24 15 C21.625 18.0625 21.625 18.0625 19 20 C18.34 20 17.68 20 17 20 C17.37511719 20.4846875 17.75023437 20.969375 18.13671875 21.46875 C28 34.38790932 28 34.38790932 28 38 C24.75 38.3984375 24.75 38.3984375 21 38 C19.26116073 35.79540021 18.1809672 34.10189582 17 31.625 C15.80893727 29.15855151 14.62960049 27.26398068 13 25 C10.69 24.34 8.38 23.68 6 23 C6 27.95 6 32.9 6 38 C4.02 38 2.04 38 0 38 C0 25.46 0 12.92 0 0 Z " fill="#2D2D2D" transform="translate(292,242)"/>
<path d="M0 0 C1.98 0 3.96 0 6 0 C7.28045699 12.65732668 8.3671523 25.29308442 9 38 C2.67266141 38.55784507 2.67266141 38.55784507 -0.265625 36.12109375 C-0.92046875 35.23550781 -1.5753125 34.34992188 -2.25 33.4375 C-2.99636719 32.45007813 -3.74273437 31.46265625 -4.51171875 30.4453125 C-5.34173921 29.29730378 -6.17112221 28.14883401 -7 27 C-8.00496451 25.64208371 -9.0115411 24.28535936 -10.01953125 22.9296875 C-12.70526961 19.30462541 -15.35906829 15.65781383 -18 12 C-18.1723784 21.04028922 -17.6331684 29.98865693 -17 39 C-19.31 39 -21.62 39 -24 39 C-24.66 26.79 -25.32 14.58 -26 2 C-18 2 -18 2 -15.88598633 3.54125977 C-15.37318115 4.25080811 -14.86037598 4.96035645 -14.33203125 5.69140625 C-13.74873047 6.47193359 -13.16542969 7.25246094 -12.56445312 8.05664062 C-11.98630859 8.88357422 -11.40816406 9.71050781 -10.8125 10.5625 C-10.22275391 11.36236328 -9.63300781 12.16222656 -9.02539062 12.98632812 C-7.32291698 15.30616151 -5.65844018 17.64852937 -4 20 C-1.525 23.465 -1.525 23.465 1 27 C0.67 18.09 0.34 9.18 0 0 Z " fill="#2F2F2F" transform="translate(179,306)"/>
<path d="M0 0 C3.2578125 -0.34765625 3.2578125 -0.34765625 7 0 C9.1171875 2.31640625 9.1171875 2.31640625 10.875 5.5625 C11.53864157 6.74502799 12.20272301 7.92730921 12.8671875 9.109375 C13.2084668 9.73779297 13.54974609 10.36621094 13.90136719 11.01367188 C15.41683644 13.75364028 17.03623233 16.42614624 18.66064453 19.10253906 C20.45336408 22.060559 22.22451165 25.03160541 24 28 C24.66 19.09 25.32 10.18 26 1 C27.98 1 29.96 1 32 1 C31.67 13.54 31.34 26.08 31 39 C24 39 24 39 22.22802734 37.40258789 C21.8098877 36.66258545 21.39174805 35.92258301 20.9609375 35.16015625 C20.47592773 34.33789551 19.99091797 33.51563477 19.49121094 32.66845703 C18.99911133 31.78786621 18.50701172 30.90727539 18 30 C16.9331157 28.24660737 15.86276694 26.49531833 14.7890625 24.74609375 C13.73166843 22.97817849 12.67746082 21.20835651 11.625 19.4375 C8.840625 14.7659375 8.840625 14.7659375 6 10 C5.67 19.24 5.34 28.48 5 38 C3.02 38 1.04 38 -1 38 C-1.11185009 25.28637273 -0.93078947 12.68200655 0 0 Z " fill="#2F2F2F" transform="translate(355,303)"/>
<path d="M0 0 C2.64 0 5.28 0 8 0 C12.0120378 8.53889461 15.5627321 17.21916332 19 26 C19.34546875 26.86753906 19.6909375 27.73507812 20.046875 28.62890625 C21.19825439 31.57795818 22 33.80348635 22 37 C20.02 37 18.04 37 16 37 C13 31.375 13 31.375 13 28 C7.72 28 2.44 28 -3 28 C-3.309375 29.464375 -3.61875 30.92875 -3.9375 32.4375 C-4.875 36.875 -4.875 36.875 -6 38 C-7.99958364 38.04080783 -10.00045254 38.04254356 -12 38 C-11.36530591 34.57196285 -10.53407947 31.30160429 -9.4765625 27.98046875 C-9.02796875 26.56991211 -9.02796875 26.56991211 -8.5703125 25.13085938 C-8.25835937 24.15955078 -7.94640625 23.18824219 -7.625 22.1875 C-7.32078125 21.22779297 -7.0165625 20.26808594 -6.703125 19.27929688 C-4.94889363 13.78795296 -3.06161955 8.38311771 -1 3 C-0.67 2.01 -0.34 1.02 0 0 Z " fill="#303030" transform="translate(245,303)"/>
<path d="M0 0 C1.134375 0.020625 2.26875 0.04125 3.4375 0.0625 C5.09216537 3.77926862 6.74619345 7.49632015 8.3996582 11.21362305 C8.96101098 12.47541773 9.52253103 13.73713802 10.08422852 14.9987793 C10.89644766 16.82320398 11.70799441 18.64792796 12.51953125 20.47265625 C13.00655518 21.56715088 13.4935791 22.66164551 13.99536133 23.78930664 C14.70921997 25.40953735 14.70921997 25.40953735 15.4375 27.0625 C15.71765961 27.67696991 15.99781921 28.29143982 16.28646851 28.92453003 C17.58166074 31.81878123 18.4375 33.85382478 18.4375 37.0625 C16.4575 37.0625 14.4775 37.0625 12.4375 37.0625 C11.1175 34.4225 9.7975 31.7825 8.4375 29.0625 C6.50007659 29.03546619 4.56254521 29.01608875 2.625 29 C1.54605469 28.98839844 0.46710938 28.97679687 -0.64453125 28.96484375 C-3.62762169 28.92625234 -3.62762169 28.92625234 -6.5625 30.0625 C-7.58531518 32.15969872 -7.58531518 32.15969872 -8.25 34.625 C-8.50136719 35.45128906 -8.75273437 36.27757812 -9.01171875 37.12890625 C-9.19347656 37.76699219 -9.37523437 38.40507812 -9.5625 39.0625 C-11.5425 39.0625 -13.5225 39.0625 -15.5625 39.0625 C-14.94473873 32.96002044 -13.19544965 27.52907823 -11.1875 21.75 C-10.57399066 19.96276412 -9.96200568 18.17500422 -9.3515625 16.38671875 C-9.05282227 15.51321777 -8.75408203 14.6397168 -8.44628906 13.73974609 C-7.26987663 10.17606135 -6.21911449 6.58028352 -5.18896484 2.97192383 C-4.08925465 -0.37992084 -3.8446695 0.06745034 0 0 Z " fill="#313131" transform="translate(193.5625,244.9375)"/>
<path d="M0 0 C2.05078125 0.03255208 4.1015625 0.06510417 6.15234375 0.09765625 C6.58933594 1.64259766 6.58933594 1.64259766 7.03515625 3.21875 C9.49067314 11.7841528 12.14198602 20.21657159 15.27197266 28.56225586 C16.53336399 31.99484704 17.15234375 34.38615511 17.15234375 38.09765625 C14.84234375 38.09765625 12.53234375 38.09765625 10.15234375 38.09765625 C9.49234375 34.79765625 8.83234375 31.49765625 8.15234375 28.09765625 C3.20234375 28.09765625 -1.74765625 28.09765625 -6.84765625 28.09765625 C-7.83765625 31.06765625 -8.82765625 34.03765625 -9.84765625 37.09765625 C-12.15765625 37.09765625 -14.46765625 37.09765625 -16.84765625 37.09765625 C-16.17118382 32.746237 -14.65408171 28.89055525 -12.94140625 24.86328125 C-12.65664429 24.18465027 -12.37188232 23.50601929 -12.07849121 22.80682373 C-11.47886114 21.38053553 -10.87697109 19.95519558 -10.27294922 18.53076172 C-9.34572502 16.34309978 -8.42623596 14.15230667 -7.5078125 11.9609375 C-6.92362771 10.57402886 -6.33900762 9.18730347 -5.75390625 7.80078125 C-5.47784546 7.14354065 -5.20178467 6.48630005 -4.9173584 5.80914307 C-2.50392856 0.13234295 -2.50392856 0.13234295 0 0 Z " fill="#303030" transform="translate(383.84765625,243.90234375)"/>
<path d="M0 0 C2.64 0 5.28 0 8 0 C8.19634033 0.67466309 8.39268066 1.34932617 8.5949707 2.04443359 C9.50039326 5.15474499 10.40644316 8.26487332 11.3125 11.375 C11.7755957 12.96634766 11.7755957 12.96634766 12.24804688 14.58984375 C12.55419922 15.64042969 12.86035156 16.69101562 13.17578125 17.7734375 C13.4795166 18.81854492 13.78325195 19.86365234 14.09619141 20.94042969 C14.6823695 22.92475812 15.28278046 24.90495885 15.89990234 26.87988281 C16.17398926 27.75741211 16.44807617 28.63494141 16.73046875 29.5390625 C16.97563232 30.30686035 17.2207959 31.0746582 17.47338867 31.86572266 C18 34 18 34 18 38 C15.69 38 13.38 38 11 38 C10.34 34.7 9.68 31.4 9 28 C4.05 28 -0.9 28 -6 28 C-6.99 30.64 -7.98 33.28 -9 36 C-11.31 36 -13.62 36 -16 36 C-13.95493436 29.40668444 -11.42439809 23.15302019 -8.5625 16.875 C-8.18029297 16.02035156 -7.79808594 15.16570312 -7.40429688 14.28515625 C-5.17436191 9.35582632 -2.76605706 4.65000025 0 0 Z " fill="#313131" transform="translate(435,308)"/>
<path d="M0 0 C1.98 0 3.96 0 6 0 C9.69436786 29.6868846 9.69436786 29.6868846 5 36 C0.12229657 39.62701024 -4.78040987 40.41053137 -10.74609375 40.3515625 C-14.66817606 39.73979923 -16.32046777 37.87559557 -19 35 C-20.62274523 32.23779771 -21.3084827 29.94475563 -21.6328125 26.76953125 C-21.71660156 25.96580078 -21.80039063 25.16207031 -21.88671875 24.33398438 C-21.96535156 23.50189453 -22.04398437 22.66980469 -22.125 21.8125 C-22.21136719 20.99974609 -22.29773438 20.18699219 -22.38671875 19.34960938 C-22.9354955 13.87490794 -23.07740494 8.50127957 -23 3 C-21.02 3 -19.04 3 -17 3 C-16.88724731 4.09671021 -16.88724731 4.09671021 -16.7722168 5.21557617 C-16.42318522 8.54100554 -16.05554337 11.86412333 -15.6875 15.1875 C-15.56955078 16.33798828 -15.45160156 17.48847656 -15.33007812 18.67382812 C-15.20439453 19.78564453 -15.07871094 20.89746094 -14.94921875 22.04296875 C-14.83924561 23.06414795 -14.72927246 24.08532715 -14.6159668 25.13745117 C-13.93507132 28.30173953 -12.89929412 30.39019976 -11 33 C-8.83929394 33.71243465 -8.83929394 33.71243465 -6.5 33.5 C-5.7265625 33.4896875 -4.953125 33.479375 -4.15625 33.46875 C-1.47375051 32.88559794 -0.55937068 32.25516583 1 30 C1.40476153 27.64108477 1.40476153 27.64108477 1.25 24.9375 C1.22421875 23.88949219 1.1984375 22.84148437 1.171875 21.76171875 C0.84025989 14.50386976 0.45119781 7.25139341 0 0 Z " fill="#2F2F2F" transform="translate(137,309)"/>
<path d="M0 0 C1.98 0 3.96 0 6 0 C6.01458252 0.76143311 6.02916504 1.52286621 6.04418945 2.30737305 C6.11880541 5.76791888 6.21542259 9.22751445 6.3125 12.6875 C6.33505859 13.88568359 6.35761719 15.08386719 6.38085938 16.31835938 C6.41630859 17.47529297 6.45175781 18.63222656 6.48828125 19.82421875 C6.51446533 20.88729248 6.54064941 21.95036621 6.56762695 23.0456543 C7.09679626 26.66139559 8.39414949 29.39414949 11 32 C16.32673036 32.33856828 16.32673036 32.33856828 21 30 C22.07955212 26.76134365 22.20441741 24.20844162 22.31640625 20.80078125 C22.35830078 19.59228516 22.40019531 18.38378906 22.44335938 17.13867188 C22.48267578 15.87603516 22.52199219 14.61339844 22.5625 13.3125 C22.60568359 12.03826172 22.64886719 10.76402344 22.69335938 9.45117188 C22.7995486 6.30089148 22.90159533 3.15053161 23 0 C24.98 0 26.96 0 29 0 C29.07455949 4.02009457 29.12879358 8.03991733 29.16479492 12.06054688 C29.17981428 13.42617816 29.20023608 14.79176176 29.22631836 16.15722656 C29.26300137 18.12803905 29.27818551 20.09921408 29.29296875 22.0703125 C29.3086792 23.25383301 29.32438965 24.43735352 29.34057617 25.65673828 C28.95749754 29.41722483 27.95718894 31.78509859 26 35 C21.40117454 38.53755805 16.45910271 38.56101992 10.8515625 38.421875 C6.45536958 37.77147934 4.88383752 36.33918028 2 33 C-0.30113128 29.45386474 -0.23190018 26.43662103 -0.1953125 22.265625 C-0.18886719 20.97011719 -0.18242187 19.67460937 -0.17578125 18.33984375 C-0.15907193 16.97655981 -0.14214206 15.61327856 -0.125 14.25 C-0.1149634 12.87110015 -0.10583873 11.49219335 -0.09765625 10.11328125 C-0.07408093 6.74201118 -0.0411727 3.37109364 0 0 Z " fill="#2B2B2B" transform="translate(252,243)"/>
<path d="M0 0 C-0.45767457 5.53447206 -2.50901855 8.79379526 -5.625 13.1875 C-6.53222878 14.50453464 -7.43847088 15.82224948 -8.34375 17.140625 C-9.01664063 18.11225586 -9.01664063 18.11225586 -9.703125 19.10351562 C-12.58949754 23.32440078 -15.27423907 27.67433592 -18 32 C-11.73 32.33 -5.46 32.66 1 33 C1 34.65 1 36.3 1 38 C-8.57 38.33 -18.14 38.66 -28 39 C-27.1506319 34.75315948 -26.68682705 33.08249402 -24.48828125 29.671875 C-23.97716797 28.87136719 -23.46605469 28.07085937 -22.93945312 27.24609375 C-22.40255859 26.42238281 -21.86566406 25.59867187 -21.3125 24.75 C-20.79494141 23.94175781 -20.27738281 23.13351562 -19.74414062 22.30078125 C-16.22629841 16.82468815 -12.62155429 11.40789817 -9 6 C-14.94 6 -20.88 6 -27 6 C-27.33 4.35 -27.66 2.7 -28 1 C-24.45843821 0.83105465 -20.91673593 0.66525124 -17.375 0.5 C-16.37597656 0.45230469 -15.37695312 0.40460938 -14.34765625 0.35546875 C-9.5608033 0.13356166 -4.79365172 -0.06544234 0 0 Z " fill="#2E2E2E" transform="translate(244,243)"/>
<path d="M0 0 C6.93 0 13.86 0 21 0 C21 1.98 21 3.96 21 6 C16.05 6 11.1 6 6 6 C6 9.63 6 13.26 6 17 C10.29 17 14.58 17 19 17 C19 18.65 19 20.3 19 22 C14.71 22 10.42 22 6 22 C6 25.63 6 29.26 6 33 C10.95 33 15.9 33 21 33 C21 34.65 21 36.3 21 38 C14.07 38 7.14 38 0 38 C0 25.46 0 12.92 0 0 Z " fill="#313131" transform="translate(325,302)"/>
<path d="M0 0 C6.93 0 13.86 0 21 0 C21 1.98 21 3.96 21 6 C16.05 6 11.1 6 6 6 C6 9.63 6 13.26 6 17 C10.29 17 14.58 17 19 17 C19 18.65 19 20.3 19 22 C14.71 22 10.42 22 6 22 C6 25.63 6 29.26 6 33 C10.95 33 15.9 33 21 33 C21 34.65 21 36.3 21 38 C14.07 38 7.14 38 0 38 C0 25.46 0 12.92 0 0 Z " fill="#313131" transform="translate(326,243)"/>
<path d="M0 0 C1.93466057 -0.04732425 3.86965293 -0.08122695 5.8046875 -0.109375 C6.88218262 -0.12967773 7.95967773 -0.14998047 9.06982422 -0.17089844 C12 0 12 0 15.125 1.75 C19.03847905 6.44617486 19.49115602 10.28358788 19.38671875 16.30078125 C18.77277065 20.58601495 17.21445287 22.15082587 14 25 C11.00043079 26.8209443 8.80623393 27.25102244 5.3125 27.1875 C4.52488281 27.18105469 3.73726562 27.17460937 2.92578125 27.16796875 C1 27 1 27 0 26 C-0.08748207 24.07332493 -0.10697334 22.14348139 -0.09765625 20.21484375 C-0.09443359 19.04501953 -0.09121094 17.87519531 -0.08789062 16.66992188 C-0.07951172 15.43822266 -0.07113281 14.20652344 -0.0625 12.9375 C-0.05798828 11.70193359 -0.05347656 10.46636719 -0.04882812 9.19335938 C-0.03699608 6.12885883 -0.02051173 3.06445279 0 0 Z " fill="#FAFAFA" transform="translate(203,310)"/>
<path d="M0 0 C0.763125 0.33 1.52625 0.66 2.3125 1 C2.3125 2.65 2.3125 4.3 2.3125 6 C1.3225 6.495 1.3225 6.495 0.3125 7 C-0.409375 6.690625 -1.13125 6.38125 -1.875 6.0625 C-5.30456267 4.76688744 -8.04786836 4.79398311 -11.6875 5 C-12.6775 5.495 -12.6775 5.495 -13.6875 6 C-14.13302334 8.30651633 -14.13302334 8.30651633 -13.6875 11 C-11.38164375 13.43536572 -11.38164375 13.43536572 -8.375 15.5625 C0.01070008 21.88740059 0.01070008 21.88740059 0.875 27.9375 C0.70213575 31.36277304 0.25581557 32.07557924 -1.9375 35 C-6.59847386 38.27707426 -12.27293833 37.69398921 -17.6875 37 C-20.29013721 36.23272337 -22.29098051 35.30719245 -24.6875 34 C-24.6875 32.02 -24.6875 30.04 -24.6875 28 C-19.9375 29.875 -19.9375 29.875 -17.6875 31 C-16.19100638 31.12005453 -14.68875207 31.17531451 -13.1875 31.1875 C-12.3934375 31.20167969 -11.599375 31.21585937 -10.78125 31.23046875 C-8.46716683 31.19666303 -8.46716683 31.19666303 -6.6875 29 C-6.64099263 26.51284844 -6.64099263 26.51284844 -7.6875 24 C-9.82843074 22.06365225 -9.82843074 22.06365225 -12.5 20.5 C-19.51302709 15.85474744 -19.51302709 15.85474744 -21.6875 12 C-22.28271377 8.89166141 -22.34262336 7.03949464 -20.62890625 4.3203125 C-15.12528435 -2.5061384 -8.1132374 -2.20019997 0 0 Z " fill="#323232" transform="translate(509.6875,314)"/>
<path d="M0 0 C2.625 1.6875 2.625 1.6875 4.625 4.6875 C5.42329231 9.187608 5.83312277 13.75597241 3.33984375 17.7421875 C0.35752241 20.58184655 -2.29558995 22.04250547 -6.4375 22.25 C-10.43334237 21.67916538 -12.99251549 20.86195433 -16.375 18.6875 C-18.52664703 15.46002945 -18.64745079 14.48244361 -18.625 10.75 C-18.63015625 9.89535156 -18.6353125 9.04070312 -18.640625 8.16015625 C-18.23476188 4.38204805 -17.17506711 2.34637879 -14.25 -0.0625 C-9.14849949 -2.2805437 -5.03470192 -1.95793964 0 0 Z " fill="#201E53" transform="translate(358.375,100.3125)"/>
<path d="M0 0 C2.625 1.6875 2.625 1.6875 4.625 4.6875 C5.42329231 9.187608 5.83312277 13.75597241 3.33984375 17.7421875 C0.35752241 20.58184655 -2.29558995 22.04250547 -6.4375 22.25 C-10.43334237 21.67916538 -12.99251549 20.86195433 -16.375 18.6875 C-18.52664703 15.46002945 -18.64745079 14.48244361 -18.625 10.75 C-18.63015625 9.89535156 -18.6353125 9.04070312 -18.640625 8.16015625 C-18.23476188 4.38204805 -17.17506711 2.34637879 -14.25 -0.0625 C-9.14849949 -2.2805437 -5.03470192 -1.95793964 0 0 Z " fill="#201E53" transform="translate(312.375,100.3125)"/>
<path d="M0 0 C12.42307692 0 12.42307692 0 16 3 C18.634936 5.634936 18.42070895 7.07258046 18.5625 10.75 C18.47031111 15.01117527 18.26827321 17.68396733 15.1875 20.75 C11 23 11 23 0 23 C0 15.41 0 7.82 0 0 Z " fill="#F4F4F6" transform="translate(379,142)"/>
<path d="M0 0 C0 1.98 0 3.96 0 6 C-6.435 6.495 -6.435 6.495 -13 7 C-12.67 10.63 -12.34 14.26 -12 18 C-5.565 17.505 -5.565 17.505 1 17 C1 18.65 1 20.3 1 22 C-3.26616316 23.13764351 -6.56486311 24 -11 24 C-10.34 29.28 -9.68 34.56 -9 40 C-10.98 40 -12.96 40 -15 40 C-16.64265017 33.1151532 -17.73737317 26.26949789 -18.625 19.25 C-18.7590625 18.23550781 -18.893125 17.22101563 -19.03125 16.17578125 C-19.60183943 11.74497967 -20.07533529 7.47391171 -20 3 C-17.22970414 2.49685437 -14.4588348 1.99736162 -11.6875 1.5 C-10.90181641 1.35691406 -10.11613281 1.21382813 -9.30664062 1.06640625 C-8.54931641 0.93105469 -7.79199219 0.79570312 -7.01171875 0.65625 C-6.31522217 0.53056641 -5.61872559 0.40488281 -4.90112305 0.27539062 C-3 0 -3 0 0 0 Z " fill="#303030" transform="translate(105,312)"/>
<path d="M0 0 C3.35442664 0.1401998 6.70846775 0.28818428 10.0625 0.4375 C11.00544922 0.47681641 11.94839844 0.51613281 12.91992188 0.55664062 C18.01115478 0.78725396 22.97064756 1.1699127 28 2 C28 3.65 28 5.3 28 7 C24.37 7 20.74 7 17 7 C17.04125 8.5675 17.0825 10.135 17.125 11.75 C17.14695695 20.8840917 16.00356331 29.93208865 15 39 C13.02 39 11.04 39 9 39 C8.86620789 27.95471804 9.23629361 17.01919215 10 6 C6.7 6 3.4 6 0 6 C0 4.02 0 2.04 0 0 Z " fill="#363636" transform="translate(394,304)"/>
<path d="M0 0 C1.98 0 3.96 0 6 0 C6.14841673 7.43526601 5.69670763 14.72483517 5 22.125 C4.90460938 23.176875 4.80921875 24.22875 4.7109375 25.3125 C4.47794968 27.87536598 4.23954365 30.43773846 4 33 C10.93 33.495 10.93 33.495 18 34 C17.67 35.65 17.34 37.3 17 39 C10.4 38.67 3.8 38.34 -3 38 C-2.38429673 25.27546573 -1.36171504 12.66527189 0 0 Z " fill="#303030" transform="translate(463,309)"/>
<path d="M0 0 C0.33 1.65 0.66 3.3 1 5 C0.195625 5.268125 -0.60875 5.53625 -1.4375 5.8125 C-2.283125 6.204375 -3.12875 6.59625 -4 7 C-4.33 7.99 -4.66 8.98 -5 10 C-3.35 10 -1.7 10 0 10 C0 11.65 0 13.3 0 15 C-1.65 15 -3.3 15 -5 15 C-5 20.94 -5 26.88 -5 33 C-6.98 33 -8.96 33 -11 33 C-11 27.06 -11 21.12 -11 15 C-12.32 15 -13.64 15 -15 15 C-15 13.35 -15 11.7 -15 10 C-13.68 10 -12.36 10 -11 10 C-11.061875 9.071875 -11.12375 8.14375 -11.1875 7.1875 C-11 4 -11 4 -9.6875 2.1875 C-6.52064738 -0.04102592 -3.74110403 -0.10111092 0 0 Z " fill="#18164C" transform="translate(381,89)"/>
<path d="M0 0 C0.80824219 0.10183594 1.61648438 0.20367187 2.44921875 0.30859375 C3.06410156 0.39238281 3.67898438 0.47617188 4.3125 0.5625 C4.3125 2.2125 4.3125 3.8625 4.3125 5.5625 C1.6725 5.5625 -0.9675 5.5625 -3.6875 5.5625 C-4.0175 6.2225 -4.3475 6.8825 -4.6875 7.5625 C-3.73037109 7.85253906 -3.73037109 7.85253906 -2.75390625 8.1484375 C-1.92761719 8.40882812 -1.10132813 8.66921875 -0.25 8.9375 C0.57371094 9.19273438 1.39742188 9.44796875 2.24609375 9.7109375 C4.3125 10.5625 4.3125 10.5625 5.3125 12.5625 C5.6875 15.4375 5.6875 15.4375 5.3125 18.5625 C3.4375 20.9375 3.4375 20.9375 0.3125 22.5625 C-3.73489883 23.01362295 -7.97928431 23.41660784 -11.6875 21.5625 C-11.6875 19.5825 -11.6875 17.6025 -11.6875 15.5625 C-10.6975 15.8925 -9.7075 16.2225 -8.6875 16.5625 C-6.35450175 16.60204234 -4.02041811 16.60651732 -1.6875 16.5625 C-1.3575 15.9025 -1.0275 15.2425 -0.6875 14.5625 C-1.409375 14.459375 -2.13125 14.35625 -2.875 14.25 C-6.07772322 13.4671121 -8.11289682 12.63648589 -10.6875 10.5625 C-11.75 7.625 -11.75 7.625 -11.6875 4.5625 C-8.35093077 0.15346209 -5.32142022 -0.69409829 0 0 Z " fill="#211F54" transform="translate(331.6875,99.4375)"/>
<path d="M0 0 C0 2.31 0 4.62 0 7 C1.65 7 3.3 7 5 7 C5 8.65 5 10.3 5 12 C3.35 12 1.7 12 0 12 C0.33 15.96 0.66 19.92 1 24 C2.32 24.33 3.64 24.66 5 25 C5 26.65 5 28.3 5 30 C3.7625 30.103125 2.525 30.20625 1.25 30.3125 C0.55390625 30.37050781 -0.1421875 30.42851563 -0.859375 30.48828125 C-3 30 -3 30 -5.25 27.90625 C-7.37934776 24.37001176 -7.41531577 22.27906521 -7.25 18.1875 C-7.21390625 17.02605469 -7.1778125 15.86460938 -7.140625 14.66796875 C-7.07101562 13.34732422 -7.07101562 13.34732422 -7 12 C-7.99 12 -8.98 12 -10 12 C-10 10.35 -10 8.7 -10 7 C-9.01 7 -8.02 7 -7 7 C-7 5.35 -7 3.7 -7 2 C-2.25 0 -2.25 0 0 0 Z " fill="#201E53" transform="translate(394,92)"/>
<path d="M0 0 C1.98 0 3.96 0 6 0 C6.13800414 8.47575426 5.73754664 16.80808103 5 25.25 C4.90460938 26.38824219 4.80921875 27.52648437 4.7109375 28.69921875 C4.47838836 31.46655352 4.24135347 34.23342165 4 37 C2.02 37 0.04 37 -2 37 C-2.13800414 28.52424574 -1.73754664 20.19191897 -1 11.75 C-0.90460938 10.61175781 -0.80921875 9.47351563 -0.7109375 8.30078125 C-0.47838836 5.53344648 -0.24135347 2.76657835 0 0 Z " fill="#2C2C2C" transform="translate(410,246)"/>
<path d="M0 0 C10 0 10 0 14 3 C13.33035714 10.09821429 13.33035714 10.09821429 10 13 C10.433125 13.55429688 10.86625 14.10859375 11.3125 14.6796875 C12.1478125 15.76636719 12.1478125 15.76636719 13 16.875 C13.556875 17.59429687 14.11375 18.31359375 14.6875 19.0546875 C16 21 16 21 16 23 C15.01 23 14.02 23 13 23 C11.32640919 20.79086013 9.99970177 18.45549182 8.59765625 16.06640625 C7.00201192 13.56193823 7.00201192 13.56193823 3 13 C3 16.3 3 19.6 3 23 C2.01 23 1.02 23 0 23 C0 15.41 0 7.82 0 0 Z " fill="#242256" transform="translate(254,142)"/>
<path d="M0 0 C0 1.98 0 3.96 0 6 C-2.01822917 5.90234375 -4.03645833 5.8046875 -6.0546875 5.70703125 C-7.01761719 5.85205078 -7.01761719 5.85205078 -8 6 C-10.38798682 8.90585687 -10.38798682 8.90585687 -9.6875 12.625 C-9.35886877 15.82504312 -9.35886877 15.82504312 -8 17 C-5.32941149 17.14115161 -2.67567762 17.04247107 0 17 C0.042721 18.66611905 0.04063832 20.33382885 0 22 C-1 23 -1 23 -4.6875 23.25 C-8.77033487 23.19868969 -11.5241453 22.23447802 -15 20 C-17.96768598 15.54847103 -17.75531806 11.21856114 -17 6 C-14.89539585 3.07693868 -13.44591209 1.64816749 -10.1875 0.1875 C-6.78329487 -0.10428901 -3.41628712 -0.05693812 0 0 Z " fill="#1D1B50" transform="translate(272,99)"/>
<path d="M0 0 C2.31 0 4.62 0 7 0 C7.33 0.66 7.66 1.32 8 2 C8.66 1.34 9.32 0.68 10 0 C11.32 0 12.64 0 14 0 C14 1.98 14 3.96 14 6 C12.02 6.66 10.04 7.32 8 8 C7.67 12.95 7.34 17.9 7 23 C4.69 23 2.38 23 0 23 C0 15.41 0 7.82 0 0 Z " fill="#1F1D52" transform="translate(277,99)"/>
<path d="M0 0 C12.42307692 0 12.42307692 0 16 3 C18.634936 5.634936 18.42070895 7.07258046 18.5625 10.75 C18.47031111 15.01117527 18.26827321 17.68396733 15.1875 20.75 C11 23 11 23 0 23 C0 15.41 0 7.82 0 0 Z M3 2 C3 8.27 3 14.54 3 21 C9.1683564 21 10.41855919 20.62253459 15 17 C16.55024464 13.89951072 16.28992015 11.42105782 16 8 C14.20437595 5.24670979 12.94745078 3.47372539 10 2 C7.69 2 5.38 2 3 2 Z " fill="#242256" transform="translate(379,142)"/>
<path d="M0 0 C2.31 0 4.62 0 7 0 C7 7.59 7 15.18 7 23 C4.69 23 2.38 23 0 23 C0 15.41 0 7.82 0 0 Z " fill="#242256" transform="translate(243,99)"/>
<path d="M0 0 C7.2 -0.36 7.2 -0.36 10.5 1.125 C12 3 12 3 12.5625 5.9375 C12 9 12 9 9.9375 11.375 C6.38328737 13.34116018 4.002247 13.31390173 0 13 C0 8.71 0 4.42 0 0 Z " fill="#F1F1F1" transform="translate(298,247)"/>
<path d="M0 0 C3.96 0 7.92 0 12 0 C12 0.66 12 1.32 12 2 C9.03 2 6.06 2 3 2 C3 4.64 3 7.28 3 10 C5.64 10 8.28 10 11 10 C11 10.66 11 11.32 11 12 C8.36 12 5.72 12 3 12 C3 14.97 3 17.94 3 21 C5.97 21 8.94 21 12 21 C12 21.66 12 22.32 12 23 C8.04 23 4.08 23 0 23 C0 15.41 0 7.82 0 0 Z " fill="#201E53" transform="translate(356,142)"/>
<path d="M0 0 C3.96 0 7.92 0 12 0 C12 0.66 12 1.32 12 2 C9.03 2 6.06 2 3 2 C3 4.64 3 7.28 3 10 C5.64 10 8.28 10 11 10 C11 10.66 11 11.32 11 12 C8.36 12 5.72 12 3 12 C3 14.97 3 17.94 3 21 C5.97 21 8.94 21 12 21 C12 21.66 12 22.32 12 23 C8.04 23 4.08 23 0 23 C0 15.41 0 7.82 0 0 Z " fill="#201E53" transform="translate(230,142)"/>
<path d="M0 0 C3.96 0 7.92 0 12 0 C12 0.66 12 1.32 12 2 C9.03 2 6.06 2 3 2 C3 4.64 3 7.28 3 10 C5.64 10 8.28 10 11 10 C11 10.99 11 11.98 11 13 C8.36 13 5.72 13 3 13 C3 16.3 3 19.6 3 23 C2.01 23 1.02 23 0 23 C0 15.41 0 7.82 0 0 Z " fill="#2B295B" transform="translate(318,142)"/>
<path d="M0 0 C1.51400391 0.01740234 1.51400391 0.01740234 3.05859375 0.03515625 C4.07050781 0.04417969 5.08242187 0.05320313 6.125 0.0625 C7.29869141 0.07990234 7.29869141 0.07990234 8.49609375 0.09765625 C8.49609375 1.08765625 8.49609375 2.07765625 8.49609375 3.09765625 C7.59117187 3.04544922 7.59117187 3.04544922 6.66796875 2.9921875 C3.18404962 2.87418379 0.28341525 2.80241069 -3.00390625 4.03515625 C-5.47452865 7.43226204 -5.7717541 10.96411235 -5.50390625 15.09765625 C-4.42435113 18.34294109 -4.42435113 18.34294109 -1.50390625 20.09765625 C1.8712532 20.49908366 5.11513297 20.38800594 8.49609375 20.09765625 C8.16609375 21.08765625 7.83609375 22.07765625 7.49609375 23.09765625 C-1.47915895 23.72505256 -1.47915895 23.72505256 -5.56640625 21.22265625 C-9.12420403 17.32055546 -8.88732347 13.92593504 -8.8671875 8.8046875 C-8.50390625 6.09765625 -8.50390625 6.09765625 -6.06640625 2.97265625 C-5.22078125 2.35390625 -4.37515625 1.73515625 -3.50390625 1.09765625 C-2.50390625 0.09765625 -2.50390625 0.09765625 0 0 Z " fill="#222054" transform="translate(210.50390625,141.90234375)"/>
<path d="M0 0 C5.56818182 0.56818182 5.56818182 0.56818182 7 2 C7.16796875 3.99609375 7.16796875 3.99609375 7.1875 6.4375 C7.20167969 7.24058594 7.21585937 8.04367188 7.23046875 8.87109375 C7 11 7 11 5 13 C2.5625 13.375 2.5625 13.375 0 13 C-1.875 11.4375 -1.875 11.4375 -3 9 C-2.67272727 2.67272727 -2.67272727 2.67272727 0 0 Z " fill="#F4F4F7" transform="translate(349,104)"/>
<path d="M0 0 C5.56818182 0.56818182 5.56818182 0.56818182 7 2 C7.16796875 3.99609375 7.16796875 3.99609375 7.1875 6.4375 C7.20167969 7.24058594 7.21585937 8.04367188 7.23046875 8.87109375 C7 11 7 11 5 13 C2.5625 13.375 2.5625 13.375 0 13 C-1.875 11.4375 -1.875 11.4375 -3 9 C-2.67272727 2.67272727 -2.67272727 2.67272727 0 0 Z " fill="#F4F4F7" transform="translate(303,104)"/>
<path d="M0 0 C1.9009762 2.8514643 2.96265899 5.29710476 4.125 8.5 C4.47820312 9.4590625 4.83140625 10.418125 5.1953125 11.40625 C6 14 6 14 6 17 C2.37 17 -1.26 17 -5 17 C-3.7915371 11.05064416 -2.25422333 5.63555833 0 0 Z " fill="#EBEBEB" transform="translate(249,309)"/>
<path d="M0 0 C1.3853378 2.61351543 2.40903838 5.06797129 3.125 7.9375 C3.29257812 8.58589844 3.46015625 9.23429687 3.6328125 9.90234375 C4 12 4 12 4 17 C0.7 16.67 -2.6 16.34 -6 16 C-5.52412884 9.97229862 -2.80277043 5.23321711 0 0 Z " fill="#ECECEC" transform="translate(438,314)"/>
<path d="M0 0 C0.33 0 0.66 0 1 0 C1.66969591 2.4575448 2.3358768 4.91594924 3 7.375 C3.19078125 8.07367188 3.3815625 8.77234375 3.578125 9.4921875 C5 14.7734375 5 14.7734375 5 17 C1.37 17 -2.26 17 -6 17 C-4.31108451 11.12900806 -2.53630629 5.55571853 0 0 Z " fill="#F0F0F0" transform="translate(385,250)"/>
<path d="M0 0 C2.16965398 3.25448097 3.36143262 6.5253585 4.625 10.1875 C4.85445312 10.84169922 5.08390625 11.49589844 5.3203125 12.16992188 C5.88395144 13.77864135 6.44247984 15.38914977 7 17 C3.37 17 -0.26 17 -4 17 C-3.21450457 11.18733381 -1.59317541 5.63122376 0 0 Z " fill="#EFEFEF" transform="translate(193,251)"/>
<path d="M0 0 C5.28 0 10.56 0 16 0 C16 0.66 16 1.32 16 2 C13.69 2 11.38 2 9 2 C9 8.93 9 15.86 9 23 C8.01 23 7.02 23 6 23 C6 16.07 6 9.14 6 2 C4.02 2 2.04 2 0 2 C0 1.34 0 0.68 0 0 Z " fill="#252357" transform="translate(277,142)"/>
<path d="M0 0 C0.99 0 1.98 0 3 0 C3 7.59 3 15.18 3 23 C2.01 23 1.02 23 0 23 C0 15.41 0 7.82 0 0 Z " fill="#2B295C" transform="translate(341,142)"/>
<path d="M0 0 C0.99 0 1.98 0 3 0 C3 7.59 3 15.18 3 23 C2.01 23 1.02 23 0 23 C0 15.41 0 7.82 0 0 Z " fill="#2B295C" transform="translate(303,142)"/>
<path d="M0 0 C2.875 -0.125 2.875 -0.125 6 0 C8 2 8 2 8.25 4.5 C8 7 8 7 6 9 C2.875 9.125 2.875 9.125 0 9 C0 6.03 0 3.06 0 0 Z " fill="#ECEBF0" transform="translate(257,144)"/>
<path d="M0 0 C0 0.99 0 1.98 0 3 C-0.90492188 2.94779297 -0.90492188 2.94779297 -1.828125 2.89453125 C-6.82600217 2.66074433 -6.82600217 2.66074433 -11.4375 4.3125 C-13.19565718 6.12201094 -13.19565718 6.12201094 -15 9 C-15.66 9 -16.32 9 -17 9 C-16.73309994 5.79719931 -16.16670984 4.2056088 -14.125 1.6875 C-9.50314881 -0.80829964 -5.14613143 -0.32444962 0 0 Z " fill="#302E5F" transform="translate(219,142)"/>
<path d="M0 0 C2.00720923 0.28674418 4.0085944 0.61866701 6 1 C6 2.65 6 4.3 6 6 C3.125 6.625 3.125 6.625 0 7 C-0.66 6.34 -1.32 5.68 -2 5 C-1.46428571 1.46428571 -1.46428571 1.46428571 0 0 Z " fill="#29275A" transform="translate(244,89)"/>
<path d="M0 0 C0.66 0 1.32 0 2 0 C1.66354211 3.14027363 0.94763914 4.05098295 -1.375 6.3125 C-2.674375 7.1478125 -2.674375 7.1478125 -4 8 C-4.99 7.67 -5.98 7.34 -7 7 C-5.47005208 5.76302083 -3.94010417 4.52604167 -2.41015625 3.2890625 C-0.86733563 2.0333609 -0.86733563 2.0333609 0 0 Z " fill="#2C2A5C" transform="translate(394,157)"/>
</svg>
