<svg xmlns="http://www.w3.org/2000/svg" viewBox="0 0 128 128"><path fill="#F7A80D" d="M38.089 77.466l-11.4 4.896 10.559 4.514 12.241-4.514-11.4-4.896zm-1.153-36.829l-11.4 4.896 10.559 4.514 12.241-4.514-11.4-4.896zM77.366 77.466l-11.4 4.896 10.559 4.514 12.241-4.514-11.4-4.896zm0-36.829l-11.4 4.896 10.559 4.514 12.241-4.514-11.4-4.896z"/><path fill="#F7A80D" d="M64.261 71.62l-12.241 4.514v17.859l12.241-4.514V71.62zm0-36.829l-12.241 4.514v17.859l12.241-4.514V34.791zm38.831 36.829l-12.241 4.514v17.859l12.241-4.514V71.62zm0-36.829l-12.241 4.514v17.859l12.241-4.514V34.791z"/><path fill="#F7A80D" d="M64.001 64L34.008 76.635v22.531l29.993-12.635V64zm0-36.829L34.008 39.806v22.531l29.993-12.635V27.171z"/><path fill="#9D5025" d="M64.001 86.531L93.994 73.9v22.535l-29.993 12.635V86.531zm0-36.829L93.994 37.07v22.535L64.001 72.24V49.702z"/><path fill="#F7A80D" d="M29.04 70.479L17.8 75.375l10.559 4.514 12.241-4.514-11.56-4.896zm-1.153-36.829l-11.4 4.896 10.559 4.514 12.241-4.514-11.4-4.896zm49.479 36.829l-11.4 4.896 10.559 4.514 12.241-4.514-11.4-4.896zm0-36.829l-11.4 4.896 10.559 4.514 12.241-4.514-11.4-4.896z"/></svg>