<svg xmlns="http://www.w3.org/2000/svg" viewBox="0 0 128 128"><path fill="#231f20" d="M64 0C28.7 0 0 28.7 0 64s28.7 64 64 64 64-28.7 64-64S99.3 0 64 0z"/><path fill="#fff" d="M78.5 68.4c-4.7 0-8.8 2.3-11.4 5.8l-8.2-4.7c.7-2.1 1.1-4.3 1.1-6.6 0-2.3-.4-4.5-1.1-6.6l8.2-4.7c2.6 3.5 6.7 5.8 11.4 5.8 7.8 0 14.1-6.3 14.1-14.1S86.3 29.2 78.5 29.2s-14.1 6.3-14.1 14.1c0 1.5.2 3 .7 4.4l-8.2 4.7c-3.2-4.4-8.4-7.3-14.2-7.3-9.7 0-17.5 7.8-17.5 17.5s7.8 17.5 17.5 17.5c5.8 0 11-2.9 14.2-7.3l8.2 4.7c-.4 1.4-.7 2.9-.7 4.4 0 7.8 6.3 14.1 14.1 14.1s14.1-6.3 14.1-14.1-6.3-14.1-14.1-14.1z"/><circle fill="#231f20" cx="78.5" cy="43.3" r="7.2"/><circle fill="#231f20" cx="42.6" cy="62.6" r="10.6"/><circle fill="#231f20" cx="78.5" cy="82.5" r="7.2"/></svg>